<svg id="Layer_1" enable-background="new 0 0 128 128" height="512" viewBox="0 0 128 128" width="512" xmlns="http://www.w3.org/2000/svg"><path d="m109.55 68.736c-2.785-2.057-6.083-2.723-9.286-1.876-3.453.914-6.428 3.52-7.958 6.972-2.336 5.272-1.287 10.038-.361 14.245.28 1.273.544 2.476.715 3.669.334 2.33.263 4.673-.143 6.589-.231-2.595-.78-5.307-1.668-8.12-.406-1.449-.855-2.695-1.333-3.703-.002-.004-.004-.008-.006-.012-2.655-6.532-6.84-12.956-11.492-17.635-.314-.316-.632-.666-.95-1.033 12.47-2.903 21.815-10.328 23.984-22.237h1.586c.552 0 1-.448 1-1s-.448-1-1-1h-1.289c.123-1.117.188-2.27.188-3.461 0-.119-.007-.229-.008-.346h1.109c.552 0 1-.448 1-1s-.448-1-1-1h-1.2c-.113-1.401-.33-2.666-.644-3.807h1.845c.552 0 1-.448 1-1s-.448-1-1-1h-2.547c-.202-.463-.417-.911-.658-1.326-2.039-4.907-4.827-10.293-8.795-17.992-.217-.422-.506-.736-.831-.972-.325-.631-.648-1.259-.99-1.922l-.291-.563c-.768-1.489-2.31-2.251-4.024-1.984-1.861.288-3.362 1.666-3.65 3.352l-1.553 9.066c-3.349-.134-7-.071-10.846-.003-4.672.082-9.773.082-14.445 0-3.299-.059-6.44-.106-9.383-.035l-.999-5.839c-.173-1.014-.928-1.81-1.854-2.234l-.16-.935c-.288-1.686-1.789-3.064-3.65-3.352-1.713-.262-3.256.497-4.023 1.985l-.286.554c-3.758 7.292-6.479 12.569-8.477 17.352-.819 1.403-1.402 3.014-1.772 4.847h-3.57c-.552 0-1 .448-1 1s.448 1 1 1h3.261c-.107.992-.165 2.039-.165 3.154 0 .22.013.435.017.653h-3.112c-.552 0-1 .448-1 1s.448 1 1 1h3.215c.109 1.305.289 2.578.556 3.807h-3.771c-.552 0-1 .448-1 1s.448 1 1 1h4.291c2.111 7.106 6.963 12.762 13.962 16.507 1.874 1.321 3.943 2.456 6.171 3.41-.94 1.278-1.873 2.435-2.787 3.354-8.679 8.732-18.468 27.143-13.094 40.767.204.677 1.403 4.029 2.456 6.188-3.463 1.218-5.284 4.032-5.158 8.044.017.54.459.969 1 .969h66.753c.305 0 .568-.145.751-.361h.255c0-.18-.014-.356-.025-.532.003-.026.017-.049.017-.076.125-3.994-1.679-6.8-5.111-8.027.67-1.209 1.24-2.484 1.705-3.812 2.903-1.145 5.389-3.125 7.281-5.872 3.805-5.525 3.042-13.341 2.717-15.604-.214-1.5-.525-2.915-.828-4.287-.77-3.501-1.378-6.266-.164-9.007.486-1.097 1.427-1.972 2.397-2.229.533-.142 1.487-.294 1.882.272.288.412.088 1.277-.05 1.623-1.025 2.454.295 4.665 2.129 5.58 1.709.853 4.166.714 5.522-1.604.002-.004.057-.099.059-.103 2.017-3.556 1.665-9.038-2.417-12.058z" fill="#e6e7e8"/><path d="m104.956 65.54c-2.536-1.874-5.532-2.482-8.436-1.713-3.163.837-5.892 3.233-7.3 6.411-2.203 4.972-1.191 9.568-.299 13.623.284 1.293.553 2.514.729 3.743.589 4.111.008 8.164-1.48 10.325-.186.27-.38.515-.578.75-.038.609-.095 1.214-.178 1.812-.115 2.117-.41 4.153-.936 5.957-.08.275-.177.537-.266.806 2.913-1.043 5.4-2.958 7.267-5.669 3.599-5.226 2.863-12.722 2.552-14.896-.21-1.466-.517-2.863-.815-4.214-.777-3.535-1.448-6.587-.102-9.627.614-1.385 1.785-2.455 3.056-2.791 1.004-.265 2.277-.311 2.958.667.7 1.005.052 2.581.052 2.581-1.565 3.744 3.817 6.588 5.866 3.086.018-.03.035-.061.053-.091 1.802-3.18 1.49-8.071-2.143-10.76z" fill="#fff"/><path d="m104.956 68.54c-2.536-1.874-5.532-2.482-8.436-1.714-3.163.837-5.892 3.233-7.3 6.411-2.203 4.972-1.191 9.568-.299 13.623.284 1.293.553 2.514.729 3.743.589 4.111.008 8.164-1.48 10.325-.186.27-.38.515-.578.75-.038.609-.095 1.214-.178 1.812-.115 2.117-.41 4.153-.936 5.957-.08.275-.177.537-.266.806 2.913-1.043 5.4-2.958 7.267-5.669 3.599-5.226 2.863-12.722 2.552-14.896-.21-1.466-.517-2.863-.815-4.214-.777-3.535-1.448-6.587-.102-9.627.614-1.385 1.785-2.455 3.056-2.791 1.004-.265 2.277-.311 2.958.667.7 1.005.052 2.581.052 2.581-1.565 3.744 3.817 6.588 5.866 3.086.018-.03.035-.061.053-.091 1.802-3.179 1.49-8.07-2.143-10.759z" fill="#6dc9f7"/><path d="m83.797 112.44c1.11-1.765 2.034-3.776 2.68-5.992.526-1.804.821-3.84.936-5.957.621-4.461-.038-9.284-1.527-14.006-.383-1.366-.814-2.575-1.274-3.544l-.002.002c-2.723-6.727-6.947-12.992-11.301-17.373-1.233-1.241-2.474-2.856-3.721-4.635-3.868.859-8.023 1.295-12.355 1.295-5.292 0-10.324-.647-14.884-1.93-1.398 2.036-2.787 3.881-4.167 5.27-9.236 9.291-17.894 27.053-12.857 39.736.094.384 1.871 5.369 2.981 7.134-2.663.588-5.788 2.347-5.63 7.392h66.753c.156-5.045-2.969-6.804-5.632-7.392z" fill="#6dc9f7"/><path d="m90.434 120.471c0-4.345-3.23-7.868-7.214-7.868-1.95 0-3.717.848-5.015 2.219-.487.6-.893 1.333-1.176 2.221.005-.115.022-.228.022-.344 0-4.369-3.67-7.91-8.197-7.91-3.801 0-6.988 2.5-7.916 5.886-.148-3.153-.204-8.008.061-15.497-1.227-1.305-2.683-2.071-4.251-2.071-.949 0-2.734.634-3.577 1.143-.181 4.74-.214 10.368-.353 15.29-1.35-2.796-4.433-4.751-8.024-4.751-4.638 0-8.424 3.261-8.725 7.383-1.288-2.147-3.509-3.569-6.038-3.569-1.95 0-3.717.848-5.015 2.219-1.007 1.24-1.679 3.036-1.604 5.649h13.685.149 15.231.016 8.971c.038-.047.029-.158-.009-.4.065.133.121.271.193.4h14.415c.238-.422.422-.874.578-1.338-.033.423-.052.862-.039 1.338z" fill="#ffd7e5"/><path d="m57.233 62.23c-5.625 0-10.956-.731-15.739-2.18 1.535 3.943 7.779 6.898 15.259 6.898 7.272 0 13.365-2.794 15.11-6.573-4.493 1.235-9.437 1.855-14.63 1.855z" fill="#fa759e"/><path d="m92.432 23.654c-2.039-4.907-4.827-10.293-8.795-17.992-1.37-2.658-5.369-1.439-5.8 1.078l-1.7 9.94c-5.545-.287-12.003.041-18.904.041-6.903 0-13.363-.328-18.909-.041l-1.696-9.916c-.431-2.517-4.43-3.736-5.8-1.078-3.942 7.65-6.719 13.015-8.754 17.896-1.384 2.342-2.144 5.44-2.144 9.552 0 19.366 16.701 29.096 37.303 29.096s37.303-9.731 37.303-29.096c0-4.072-.747-7.147-2.104-9.48z" fill="#6dc9f7"/><path d="m32.773 56.204c6.55 4.009 15.098 6.025 24.46 6.025 9.029 0 17.308-1.87 23.761-5.6-1.165-11.926-11.524-21.257-24.134-21.257-12.46 0-22.72 9.11-24.087 20.832z" fill="#ffd7e5"/><circle cx="56.113" cy="69.616" fill="#ffd7e5" r="5.594"/><g fill="#3a2c60"><path d="m105.551 64.737c0-.001-.001-.001 0 0-2.785-2.058-6.083-2.725-9.287-1.876-3.454.914-6.429 3.52-7.958 6.972-2.336 5.272-1.287 10.038-.359 14.253.279 1.271.542 2.47.713 3.66.334 2.33.262 4.674-.144 6.59-.231-2.595-.78-5.308-1.667-8.121-.407-1.45-.856-2.696-1.334-3.703-.002-.004-.004-.008-.006-.012-2.655-6.531-6.841-12.956-11.491-17.635-.673-.677-1.394-1.529-2.189-2.566.28-.356.524-.724.731-1.103 2.213-.631 4.318-1.39 6.261-2.304.5-.235.715-.831.479-1.33-.234-.5-.831-.716-1.33-.479-2.111.992-4.412 1.809-6.859 2.452-.14.037-.281.072-.421.107-.571.144-1.155.273-1.741.398-.58.123-1.169.233-1.761.337-.35.062-.698.127-1.053.182-.607.094-1.224.17-1.842.244-.353.042-.701.091-1.058.127-.669.067-1.349.113-2.03.158-.275.018-.545.044-.822.058-.087.004-.174.008-.261.012-.954.045-1.915.073-2.889.073-.676 0-1.345-.012-2.009-.033-.234-.007-.464-.022-.696-.032-.426-.018-.853-.036-1.274-.063-.282-.018-.559-.044-.839-.066-.367-.029-.735-.057-1.098-.092-.295-.029-.586-.065-.878-.099-.342-.039-.685-.077-1.023-.123-.296-.04-.588-.085-.881-.13-.33-.05-.661-.099-.987-.155-.286-.049-.569-.103-.852-.156-.331-.062-.661-.125-.988-.194-.268-.056-.534-.116-.799-.177-.337-.077-.673-.155-1.006-.239-.247-.062-.492-.126-.737-.192-.447-.12-.892-.241-1.33-.373-9.942-3.028-16.859-9.165-19.594-17.513h1.796c.552 0 1-.448 1-1s-.448-1-1-1h-2.362c-.293-1.227-.499-2.497-.618-3.807h2.98c.552 0 1-.448 1-1s-.448-1-1-1h-3.09c-.005-.218-.017-.433-.017-.653 0-1.127.065-2.171.181-3.154h2.926c.552 0 1-.448 1-1s-.448-1-1-1h-2.595c.333-1.474.827-2.765 1.492-3.89.023-.04.044-.081.062-.124 1.972-4.729 4.688-9.998 8.446-17.289l.274-.533c.509-.986 1.433-1.003 1.942-.924.863.133 1.821.764 1.983 1.712l1.696 9.917c.085.499.53.866 1.038.83 1.835-.095 3.784-.121 5.814-.114.652 5.226 2.069 8.855 3.717 8.855 1.638 0 3.049-3.586 3.706-8.761.637.008 1.266.019 1.913.025.182 7.818 1.935 13.959 4.079 13.959 2.146 0 3.899-6.146 4.08-13.969.643-.007 1.28-.015 1.912-.025.657 5.181 2.068 8.771 3.707 8.771 1.648 0 3.065-3.628 3.717-8.853 1.758.002 3.457.029 5.063.112.511.037.952-.33 1.038-.83l1.7-9.94c.162-.948 1.121-1.579 1.983-1.712.51-.079 1.433-.062 1.942.924l.297.577c3.769 7.313 6.492 12.596 8.464 17.341.017.041.037.081.059.119.646 1.11 1.127 2.38 1.453 3.823h-2.587c-.552 0-1 .448-1 1s.448 1 1 1h2.92c.116.983.181 2.027.181 3.154 0 .222-.021.434-.025.653h-3.076c-.552 0-1 .448-1 1s.448 1 1 1h2.983c-.112 1.313-.321 2.579-.603 3.807h-2.38c-.552 0-1 .448-1 1s.448 1 1 1h1.832c-.998 3.143-2.571 5.987-4.753 8.483-.363.416-.321 1.048.095 1.411.417.364 1.048.321 1.411-.095 2.509-2.871 4.278-6.157 5.34-9.8h4.279c.552 0 1-.448 1-1s-.448-1-1-1h-3.78c.261-1.235.469-2.496.574-3.807h3.206c.552 0 1-.448 1-1s-.448-1-1-1h-3.127c.004-.22.025-.432.025-.653 0-1.115-.058-2.161-.166-3.154h3.268c.552 0 1-.448 1-1s-.448-1-1-1h-3.577c-.363-1.798-.933-3.384-1.73-4.77-2.001-4.805-4.733-10.105-8.508-17.43l-.297-.576c-.767-1.49-2.31-2.247-4.024-1.984-1.86.287-3.361 1.666-3.65 3.352l-1.551 9.068c-3.35-.134-7-.07-10.846-.003-4.672.082-9.773.082-14.445 0-3.848-.068-7.499-.132-10.848.003l-1.547-9.045c-.289-1.686-1.79-3.064-3.65-3.352-1.716-.264-3.257.495-4.024 1.984l-.275.533c-3.763 7.301-6.487 12.585-8.487 17.373-.819 1.403-1.402 3.014-1.772 4.847h-3.571c-.552 0-1 .448-1 1s.448 1 1 1h3.261c-.108.993-.165 2.039-.165 3.154 0 .22.013.435.017.653h-3.112c-.552 0-1 .448-1 1s.448 1 1 1h3.215c.109 1.305.289 2.578.556 3.807h-3.771c-.552 0-1 .448-1 1s.448 1 1 1h4.291c2.725 9.174 10.018 15.933 20.601 19.278-1.237 1.731-2.288 3.021-3.254 3.993-8.68 8.731-18.469 27.142-13.095 40.766.204.68 1.401 4.027 2.456 6.188-3.463 1.218-5.284 4.032-5.158 8.043.017.54.459.969 1 .969h66.753c.54 0 .982-.429 1-.969.125-3.994-1.679-6.8-5.112-8.027.674-1.217 1.246-2.5 1.713-3.835 2.912-1.155 5.423-3.161 7.274-5.849 3.804-5.523 3.042-13.34 2.718-15.604-.217-1.516-.542-2.988-.829-4.289-.77-3.501-1.377-6.266-.164-9.005.487-1.098 1.428-1.973 2.397-2.229.534-.141 1.49-.293 1.883.272.287.412.087 1.278-.051 1.623-1.025 2.455.295 4.665 2.13 5.58 1.709.854 4.167.714 5.518-1.596l.063-.11c2.014-3.555 1.662-9.037-2.419-12.056zm-49.438 3.277c-.552 0-1 .448-1 1v5.078c-2.053-.459-3.595-2.288-3.595-4.477 0-2.533 2.061-4.594 4.595-4.594 2.533 0 4.594 2.061 4.594 4.594 0 2.189-1.542 4.019-3.594 4.477v-5.078c0-.552-.448-1-1-1zm-2.753-4.902c.065.004.132.006.197.01.133.008.267.012.401.019.248.012.494.027.744.036-1.42.311-2.669 1.081-3.585 2.147-3.12-.707-5.732-1.976-7.324-3.6 2.973.716 6.169 1.186 9.567 1.388zm4.327.107c.87-.006 1.736-.022 2.591-.062.021-.001.042-.001.063-.002.503-.024.993-.072 1.489-.108.477-.035.959-.06 1.429-.106.032-.003.065-.005.097-.008.56-.055 1.106-.134 1.656-.204.385-.049.776-.091 1.157-.147.044-.007.089-.011.133-.017.522-.079 1.031-.18 1.544-.274.382-.07.769-.133 1.146-.21.052-.011.107-.018.159-.029.024.034.046.062.071.096-1.823 1.589-4.662 2.791-7.945 3.381-.894-1.129-2.149-1.955-3.59-2.31zm30.725 55.613h-10.474c.326-1.388.196-3.528-.009-6.671-.375-5.742-.89-13.606 1.291-21.602.145-.533-.169-1.083-.702-1.228-.533-.144-1.082.169-1.228.702-2.269 8.319-1.72 16.708-1.357 22.259.177 2.711.377 5.772-.037 6.438-.031-.003-.062-.004-.093-.004h-5.267v-3.632c0-.552-.448-1-1-1s-1 .448-1 1v3.632h-2.087v-3.632c0-.552-.448-1-1-1s-1 .448-1 1v3.632h-1.335c-1.036 0-1.879-.843-1.879-1.879v-23.07c0-.552-.448-1-1-1s-1 .448-1 1v23.07c0 .729.214 1.403.565 1.986h-7.497c.351-.583.565-1.258.565-1.986v-23.07c0-.552-.448-1-1-1s-1 .448-1 1v23.07c0 1.036-.843 1.879-1.879 1.879h-1.335v-3.632c0-.552-.448-1-1-1s-1 .448-1 1v3.632h-2.087v-3.632c0-.552-.448-1-1-1s-1 .448-1 1v3.632h-5.267c-.024 0-.06.001-.093.004-.414-.666-.214-3.727-.037-6.438.363-5.551.912-13.939-1.357-22.259-.146-.533-.693-.848-1.228-.702-.533.146-.847.695-.702 1.228 2.181 7.997 1.667 15.86 1.292 21.602-.205 3.143-.336 5.283-.009 6.671h-10.476c.202-2.931 1.823-4.751 4.83-5.415h.001c.017-.003 1.692-.352 2.777.662.193.18.438.269.683.269.267 0 .534-.106.731-.317.377-.404.355-1.037-.048-1.414-1.272-1.188-2.882-1.303-3.817-1.247-1.019-1.936-2.432-5.865-2.552-6.301-.011-.044-.025-.088-.042-.131-5.08-12.789 4.332-30.307 12.637-38.662.924-.93 1.912-2.124 3.031-3.65 1.733 2.02 4.602 3.599 8.09 4.495-.316.77-.494 1.612-.494 2.495 0 3.636 2.958 6.594 6.595 6.594s6.594-2.958 6.594-6.594c0-.786-.145-1.537-.399-2.237 3.287-.683 6.132-1.957 8.112-3.631.78 1.003 1.498 1.841 2.179 2.527 4.487 4.514 8.526 10.726 11.084 17.042.016.04.034.078.055.115.419.895.818 2.013 1.194 3.353 1.342 4.257 1.895 8.238 1.654 11.921-.009.136-.021.266-.032.398-.037.448-.079.894-.139 1.333-.117 2.162-.419 4.09-.897 5.73-.014.049-.031.095-.046.142-.046.152-.1.3-.148.451l-.061.179c-.001.003-.001.007-.002.011-.521 1.578-1.199 3.076-2.028 4.472-.694-.107-2.775-.273-4.345 1.194-.404.377-.425 1.01-.048 1.413.197.211.463.317.73.317.245 0 .49-.089.683-.27 1.076-1.005 2.734-.67 2.776-.661.17.037.335.015.491-.03.023.007.039.025.062.03 3.007.666 4.629 2.486 4.831 5.417zm17.769-42.946c-.758 1.298-2.038 1.254-2.903.823-1.004-.5-1.757-1.628-1.174-3.023.087-.213.828-2.122-.156-3.533-.808-1.159-2.24-1.536-4.034-1.062-1.557.412-2.98 1.696-3.715 3.353-1.479 3.338-.741 6.693.04 10.247.292 1.327.595 2.699.802 4.14.298 2.083 1.007 9.261-2.386 14.187-1.325 1.924-2.966 3.417-4.894 4.456.006-.026.01-.054.016-.079.022-.098.04-.202.061-.301.072-.345.139-.696.199-1.056.025-.151.048-.304.071-.457.05-.336.094-.677.133-1.024.016-.145.034-.288.049-.435.048-.49.089-.985.116-1.492.025-.181.038-.382.059-.568.038-.33.079-.659.105-.995.145-.181.287-.369.425-.57 1.647-2.394 2.278-6.622 1.646-11.034-.181-1.263-.452-2.498-.742-3.816-.859-3.905-1.833-8.33.236-13.002 1.287-2.903 3.77-5.089 6.642-5.849 2.605-.688 5.3-.138 7.585 1.55 3.189 2.358 3.453 6.663 1.819 9.54z"/><path d="m44.371 32.525c0-1.673-1.356-3.029-3.029-3.029s-3.029 1.356-3.029 3.029 1.356 3.029 3.029 3.029 3.029-1.356 3.029-3.029z"/><path d="m76.683 32.525c0-1.673-1.356-3.029-3.029-3.029s-3.029 1.356-3.029 3.029 1.356 3.029 3.029 3.029 3.029-1.356 3.029-3.029z"/><path d="m50.518 50.801c2.878 0 5.389-1.587 6.715-3.929 1.326 2.342 3.836 3.929 6.714 3.929 4.254 0 7.714-3.46 7.714-7.714 0-.552-.448-1-1-1s-1 .448-1 1c0 3.151-2.563 5.714-5.714 5.714-2.647 0-4.872-1.811-5.519-4.257 2.515-.146 4.4-.743 4.4-1.457 0-.824-2.505-1.492-5.595-1.492s-5.595.668-5.595 1.492c0 .715 1.885 1.311 4.4 1.457-.647 2.446-2.872 4.257-5.519 4.257-3.151 0-5.714-2.563-5.714-5.714 0-.552-.448-1-1-1s-1 .448-1 1c-.001 4.253 3.459 7.714 7.713 7.714z"/><path d="m84.637 52.883c-.815.682-1.696 1.335-2.618 1.941-.461.304-.589.924-.286 1.385.192.292.511.45.836.45.188 0 .379-.053.549-.165.985-.648 1.927-1.348 2.801-2.078.423-.354.48-.985.125-1.409-.352-.422-.981-.479-1.407-.124z"/></g></svg>