<svg id="Layer_1" enable-background="new 0 0 128 128" height="512" viewBox="0 0 128 128" width="512" xmlns="http://www.w3.org/2000/svg"><path d="m93.063 102.974c11.868.082 9.821-10.752 7.699-16.918-.452-1.314-2.316-1.344-2.797-.04-1.231 3.34-3.012 5.5-4.862 6.9-.507-4.101-1.739-7.993-4.022-11.03-2.17-2.886-6.157-12.384-9.145-20.874 4.058-6.045 6.602-14.329 6.602-22.363 0-3.075-.388-5.761-1.075-8.119 2.945-.236 5.678-1.135 7.806-2.589 2.573-1.757 3.975-4.112 3.949-6.632-.042-4.147-11.043-4.252-13.254-4.224-2.454.024-4.788.222-6.766.565-.126-.099-.259-.189-.388-.284.427-2.087 1.193-4.877 2.531-7.271.839-1.501.478-3.291-.878-4.352-1.36-1.065-3.189-.987-4.451.191-1.871 1.748-3.705 4.422-5.474 7.96-1.673-.314-3.453-.49-5.36-.49-1.978 0-3.817.192-5.544.529-1.775-3.559-3.616-6.246-5.493-7.999-1.261-1.178-3.092-1.256-4.452-.191-1.355 1.062-1.715 2.851-.877 4.352 1.365 2.442 2.136 5.3 2.557 7.4-.003.002-.006.005-.009.007-1.968-.296-4.274-.443-6.686-.417-3.284.033-6.353.374-8.642.962-3.02.775-4.543 1.962-4.527 3.527.025 2.52 1.475 4.846 4.081 6.551 2.325 1.521 5.343 2.377 8.553 2.454-.254 1.623-.389 3.346-.389 5.174 0 8.128 2.591 16.767 6.861 23.077-3.035 8.974-7.54 19.921-9.899 23.056-5.129 6.824-4.978 17.955-3.124 26.112.112.748 1.029 5.347 1.849 7.956-2.5 1.09-5.15 3.723-5.442 9.938-.012.264.084.521.266.712s.435.299.699.299h61.872c.264 0 .517-.108.699-.299s.278-.448.266-.712c-.292-6.215-2.942-8.848-5.442-9.938.82-2.61 1.737-7.209 1.849-7.956.361-1.581.654-3.274.859-5.024z" fill="#e6e7e8"/><path d="m85.273 112.671c.865-2.188 2.067-8.25 2.121-8.71 1.81-7.926 2.019-18.752-2.946-25.357-2.673-3.556-7.695-16.106-10.676-25.262-3.702 5.934-8.81 9.965-14.453 9.965-5.171 0-9.891-3.391-13.494-8.525-3.016 8.985-7.663 20.448-10.199 23.821-4.965 6.605-4.756 17.43-2.946 25.357.054.46 1.256 6.522 2.121 8.71-2.435.734-5.397 2.943-5.7 9.405h30.446.979 30.446c-.303-6.461-3.264-8.67-5.699-9.404z" fill="#ffd7e5"/><path d="m39.456 25.743c1.007-4.977 3.268-8.609 6.371-11.071-7.208-1.207-19.247-.143-19.216 3.03.045 4.522 5.565 8.132 12.328 8.064.174-.002.344-.016.517-.023z" fill="#ffd7e5"/><path d="m73.006 14.834c3.001 2.458 5.189 6.037 6.174 10.907.346.016.694.028 1.047.025 6.763-.068 12.209-3.788 12.164-8.31-.031-3.189-12.217-4.004-19.385-2.622z" fill="#ffd7e5"/><path d="m46.919 13.877c1.974-1.32 4.221-2.236 6.667-2.77-2.002-4.148-3.895-6.748-5.588-8.33-2.045-1.91-5.192.542-3.827 2.985 1.528 2.734 2.336 5.919 2.748 8.115z" fill="#fa759e"/><path d="m59.318 10.507c-11.301 0-20.462 6.131-20.462 21.383s9.161 31.417 20.462 31.417 20.462-16.165 20.462-31.417c0-15.251-9.161-21.383-20.462-21.383z" fill="#fff"/><path d="m71.871 13.977c.406-2.198 1.215-5.439 2.766-8.214 1.365-2.443-1.781-4.895-3.827-2.985-1.697 1.585-3.595 4.194-5.602 8.359 2.449.552 4.696 1.492 6.663 2.84z" fill="#fa759e"/><path d="m62.215 13.403c-11.301 0-20.462 6.131-20.462 21.383s9.161 31.417 20.462 31.417 20.462-16.165 20.462-31.417-9.161-21.383-20.462-21.383z" fill="#ffd7e5"/><g fill="#3a2c60"><path d="m89.237 99.103c11.815.053 9.783-10.752 7.663-16.909-.452-1.314-2.316-1.344-2.797-.04-1.224 3.321-2.992 5.472-4.83 6.872-.509-4.098-1.744-7.986-4.026-11.022-2.172-2.89-6.138-12.361-9.142-20.9-.457.684-.934 1.337-1.429 1.96 2.98 8.305 6.738 17.17 8.972 20.142 4.735 6.299 4.536 16.803 2.771 24.533-.008.032-.015.072-.019.104-.069.541-1.259 6.441-2.058 8.46-.039.097-.045.199-.052.301-.643-.127-1.304-.204-1.985-.204-.272 0-2.008.182-4.305.469-.273-6.061-.537-14.039 1.024-22.188.104-.542-.252-1.066-.794-1.17-.543-.107-1.066.251-1.171.794-1.613 8.423-1.316 16.925-1.051 22.822-3.781.505-8.265 1.198-10.499 1.828v-20.741c0-.552-.447-1-1-1s-1 .448-1 1v24.668c0 .816.183 1.563.491 2.194h-7.922c.304-.631.484-1.378.484-2.194v-24.668c0-.552-.447-1-1-1s-1 .448-1 1v20.27c-2.663-.419-6.74-.951-10.27-1.372.261-5.896.55-14.39-1.032-22.804-.102-.542-.624-.898-1.167-.798-.543.102-.9.625-.798 1.168 1.533 8.155 1.273 16.138 1.004 22.201-2.499-.285-4.444-.479-4.927-.479-.547 0-1.078.058-1.601.143-.011-.081-.011-.163-.041-.24-.794-2.009-1.987-7.919-2.058-8.46-.004-.035-.011-.07-.019-.104-1.765-7.73-1.964-18.234 2.771-24.533 2.474-3.292 6.703-13.565 9.726-22.284 2.231 2.792 4.828 4.973 7.694 6.219l1.904 5.654c1.151 3.419 5.987 3.419 7.138 0l1.918-5.697c5.85-2.572 10.999-9.121 13.888-18.13.169-.526-.121-1.089-.646-1.258-.527-.169-1.09.121-1.258.647-3.28 10.226-9.806 17.242-16.472 17.888v-7.865c2.12-.421 3.715-2.147 3.715-4.21 0-.552-.447-1-1-1s-1 .448-1 1c0 1.275-1.218 2.312-2.715 2.312s-2.715-1.037-2.715-2.312c0-.552-.447-1-1-1s-1 .448-1 1c0 2.063 1.595 3.788 3.715 4.21v7.881c-10.471-.954-18.46-16.736-18.46-30.371 0-2.244.227-4.31.643-6.213.066-.31.142-.613.219-.914.107-.411.222-.815.349-1.208.047-.149.093-.3.143-.446 1.073-3.077 2.767-5.591 5.038-7.479.009-.007.017-.015.026-.023 3.239-2.681 7.638-4.101 13.045-4.101 9.228 0 15.515 4.14 18.115 11.619.047.138.089.28.134.42.13.403.248.817.357 1.238.074.289.146.58.21.878.418 1.907.646 3.978.646 6.228 0 1.102-.05 2.228-.146 3.345-.048.55.359 1.035.909 1.083.548.062 1.036-.359 1.083-.909.103-1.176.154-2.359.154-3.519 0-1.811-.13-3.522-.38-5.132 7.228-.134 13.041-4.285 12.992-9.313-.005-.51-.191-1.264-1.047-1.963-2.879-2.352-12.546-2.838-18.985-1.724-.121-.095-.25-.182-.374-.274.43-2.098 1.195-4.859 2.523-7.236.847-1.516.483-3.324-.886-4.396-1.373-1.076-3.223-.996-4.496.192-1.866 1.742-3.702 4.421-5.466 7.947-1.669-.311-3.444-.486-5.344-.486-1.84 0-3.565.161-5.189.453-1.759-3.509-3.589-6.177-5.449-7.914-1.275-1.189-3.124-1.269-4.497-.192-1.369 1.072-1.732 2.88-.886 4.396 1.312 2.346 2.072 5.06 2.501 7.127-.107.078-.215.155-.32.235-6.444-.961-16.075-.266-18.868 2.122-.836.714-1.005 1.47-1 1.978.05 4.9 5.652 8.849 12.627 9.037-.251 1.613-.381 3.326-.381 5.142 0 8.123 2.587 16.757 6.851 23.07-3.031 8.944-7.494 19.867-9.882 23.043-5.137 6.834-4.986 17.975-3.131 26.139.113.753 1.023 5.316 1.841 7.931-2.502 1.102-5.143 3.746-5.434 9.956-.013.273.087.54.275.737s.45.31.724.31h61.871c.273 0 .535-.112.724-.31s.288-.464.275-.737c-.292-6.211-2.933-8.855-5.436-9.956.81-2.598 1.728-7.178 1.842-7.929.362-1.584.656-3.283.861-5.039zm1.844-82.071c.115.094.31.277.312.434.039 3.963-4.974 7.238-11.174 7.3-.068.001-.138.001-.207 0-.201-.868-.439-1.704-.718-2.503 1.009.233 1.956.344 2.826.344 4.652 0 7.264-2.82 7.401-2.973.37-.41.338-1.042-.072-1.413-.41-.369-1.041-.338-1.412.073-.035.039-3.508 3.79-9.663 1.631-.025-.009-.05-.004-.075-.01-.817-1.66-1.821-3.143-3.023-4.421 6.128-.749 13.834-.071 15.805 1.538zm-19.587-13.524c.673-.628 1.422-.453 1.897-.08.473.37.818 1.049.373 1.846-1.29 2.308-2.087 4.916-2.572 7.046-1.375-.781-2.879-1.413-4.526-1.87 1.588-3.098 3.209-5.43 4.828-6.942zm-26.45 1.766c-.445-.796-.1-1.476.373-1.846.249-.196.573-.337.923-.337.317 0 .655.117.976.417 1.61 1.504 3.223 3.821 4.803 6.894-1.645.444-3.145 1.066-4.522 1.83-.484-2.099-1.276-4.673-2.553-6.958zm-17.434 12.418c-.002-.157.188-.341.3-.438 1.487-1.271 6.468-2.063 11.494-2.063 1.374 0 2.748.061 4.058.186-1.28 1.338-2.339 2.905-3.191 4.668-5.838 1.844-9.122-1.587-9.274-1.752-.371-.408-1.001-.438-1.41-.07-.41.37-.442 1.002-.072 1.413.138.153 2.749 2.973 7.402 2.973.743 0 1.543-.083 2.388-.249-.265.769-.488 1.575-.681 2.407-6.061-.044-10.974-3.177-11.014-7.075z"/><path d="m78.214 38.506c-.157.931-.347 1.862-.563 2.768-.128.537.203 1.077.74 1.205.078.019.156.027.233.027.452 0 .862-.309.972-.768.227-.949.426-1.924.591-2.898.092-.545-.275-1.061-.819-1.153-.548-.093-1.061.275-1.154.819z"/><path d="m48.98 34.442c0 1.409 1.142 2.551 2.551 2.551s2.551-1.142 2.551-2.551-1.142-2.551-2.551-2.551-2.551 1.142-2.551 2.551z"/><path d="m62.85 34.442c0 1.409 1.142 2.551 2.551 2.551s2.551-1.142 2.551-2.551-1.142-2.551-2.551-2.551-2.551 1.142-2.551 2.551z"/></g></svg>