<svg id="Layer_1" enable-background="new 0 0 128 128" height="512" viewBox="0 0 128 128" width="512" xmlns="http://www.w3.org/2000/svg"><path d="m113.936 70.505c-.306-.226-.621-.429-.938-.621 4.858-4.229 8.038-8.073 7.952-10.857-.274-8.889-3.432-25.815-11.186-37.394-.151-.273-.306-.542-.461-.81 2.249-5.648.659-11.347-.221-12.693-1.568-2.403-8.519-.369-8.814-.281-.627.186-1.375.441-2.125.762-11.798-7.063-27.78-.635-33.143 1.912-5.338-2.535-21.192-8.917-32.973-2.017-1.361-.679-2.75-1.135-3.457-1.345-1.893-.563-6.431-1.663-7.681.253-.775 1.186-2.52 7.432-.181 13.392-6.448 11.165-9.371 25.914-9.658 35.191-.185 6.005 12.602 15.964 26.865 25.177-5.365 9.198-8.854 20.847-5.152 30.228.207.681 1.413 4.039 2.457 6.186-3.465 1.218-5.286 4.032-5.161 8.044.018.54.46.969 1 .969h66.754c.54 0 .982-.429 1-.969.124-3.994-1.68-6.8-5.112-8.027.67-1.209 1.24-2.485 1.705-3.812 2.903-1.145 5.389-3.125 7.28-5.872 3.806-5.525 3.043-13.341 2.719-15.604-.219-1.522-.542-2.991-.828-4.287-.77-3.501-1.378-6.267-.164-9.007.486-1.098 1.427-1.973 2.396-2.229.533-.141 1.487-.294 1.883.272.203.292.159.805.069 1.206-.945.334-2.742 1.219-3.51 3.293-1.063 2.868.305 6.775 4.063 11.612.194.249.488.386.79.386.123 0 .247-.022.365-.069.302-.118 7.388-2.956 8.435-7.958.399-1.908-.132-3.827-1.55-5.723.643-3.231-.289-6.992-3.418-9.308zm-17.034 29.6c-.231-2.594-.78-5.307-1.668-8.121-.405-1.445-.854-2.691-1.333-3.702-.002-.004-.004-.008-.006-.013-.481-1.184-1.028-2.359-1.603-3.526.998-.634 1.996-1.275 2.991-1.923.053 2.489.565 4.835 1.047 7.03.28 1.272.544 2.474.714 3.665.335 2.33.264 4.674-.142 6.59z" fill="#e6e7e8"/><path d="m112.282 76.058c-.182.715-.449 1.396-.799 2.011-.017.031-.035.061-.053.091-2.049 3.503-7.43.659-5.866-3.086 0 0-8.588 1.744.54 13.489 0 0 12.384-4.872 6.178-12.505z" fill="#0089ef"/><path d="m109.342 67.31c-.371-.274-.754-.512-1.142-.732-4.419 3.744-10.074 7.756-15.914 11.588-.036 2.644.511 5.143 1.021 7.463.284 1.293.553 2.514.729 3.743.589 4.111.008 8.164-1.48 10.325-.186.27-.38.515-.578.75-.038.609-.095 1.214-.178 1.812-.115 2.117-.41 4.153-.936 5.957-.08.275-.177.537-.266.806 2.913-1.043 5.4-2.958 7.267-5.669 3.599-5.226 2.863-12.722 2.552-14.896-.21-1.466-.517-2.863-.815-4.214-.777-3.535-1.448-6.587-.102-9.627.614-1.385 1.785-2.455 3.056-2.791 1.004-.265 2.277-.311 2.958.667.7 1.005.052 2.581.052 2.581-1.564 3.744 3.817 6.588 5.866 3.086.018-.03.035-.061.053-.091 1.802-3.179 1.49-8.07-2.143-10.758z" fill="#ffd7e5"/><path d="m88.183 114.209c1.11-1.765 2.034-3.776 2.68-5.992.526-1.804.821-3.84.936-5.957.621-4.461-.038-9.284-1.527-14.006-.383-1.366-.814-2.575-1.274-3.544l-.002.002c-.471-1.163-1-2.304-1.554-3.432-8.078 5.096-15.96 9.616-20.894 12.372l-2.548 1.413-2.548-1.412c-6.107-3.411-16.727-9.52-26.65-16.087-5.418 9.218-8.627 20.612-5.093 29.51.094.384 1.871 5.369 2.981 7.134-2.663.588-5.788 2.347-5.63 7.392h66.753c.158-5.046-2.967-6.804-5.63-7.393z" fill="#ffd7e5"/><path d="m27.584 5.956c.159-.106.323-.199.484-.299-3.491-1.92-9.418-3.111-10.342-1.696-.601.921-2.349 7.145.102 12.903 2.625-4.456 5.848-8.31 9.756-10.908z" fill="#ffd7e5"/><path d="m94.416 5.956c3.914 2.602 7.143 6.465 9.77 10.931 2.422-5.578.658-11.291.058-12.21-.911-1.395-6.677-.597-10.175 1.065.115.073.233.138.347.214z" fill="#ffd7e5"/><path d="m113.949 52.028c-.357-11.58-5.598-36.807-19.533-46.071-11.749-7.812-28.462-.737-33.416 1.675-4.953-2.412-21.667-9.487-33.416-1.676-13.934 9.264-19.176 34.492-19.533 46.072-.29 9.414 36.593 30.912 50.401 38.625l2.548 1.412 2.548-1.412c13.808-7.714 50.691-29.211 50.401-38.625z" fill="#fff"/><path d="m116.949 55.028c-.357-11.58-5.598-36.807-19.533-46.071-11.749-7.812-28.462-.737-33.416 1.675-4.953-2.412-21.667-9.487-33.416-1.676-13.934 9.264-19.176 34.492-19.533 46.072-.29 9.414 36.593 30.912 50.401 38.625l2.548 1.412 2.548-1.412c13.808-7.714 50.691-29.211 50.401-38.625z" fill="#0089ef"/><path d="m61 15.669c-15.931 0-28.845 10.189-28.845 25.567s12.914 31.189 28.845 31.189 28.845-15.812 28.845-31.189-12.914-25.567-28.845-25.567z" fill="#ffd7e5"/><path d="m62.442 40.291h-2.883c-5.488 0-9.937 4.449-9.937 9.937v15.13c0 3.343 2.71 6.053 6.053 6.053h10.65c3.343 0 6.053-2.71 6.053-6.053v-15.13c0-5.488-4.448-9.937-9.936-9.937z" fill="#fff"/><path d="m113.352 75.825c.647-3.234-.283-7.001-3.415-9.319 0 0 0 0-.001 0-.306-.226-.621-.429-.938-.621-.526.458-1.07.919-1.633 1.385.473.242.938.515 1.384.844 3.188 2.361 3.452 6.665 1.818 9.542-.759 1.296-2.038 1.255-2.902.823-1.005-.5-1.758-1.628-1.175-3.023.088-.213.828-2.122-.156-3.533-.704-1.01-1.881-1.424-3.358-1.202-1.33.997-2.718 2.001-4.143 3.005-.088.16-.174.32-.248.488-1.479 3.34-.741 6.695.04 10.247.278 1.262.594 2.692.801 4.14.299 2.082 1.009 9.259-2.385 14.187-1.325 1.924-2.966 3.417-4.894 4.456.006-.027.011-.056.017-.084.021-.092.037-.189.057-.283.074-.352.142-.712.203-1.079.024-.145.046-.291.068-.439.051-.341.096-.688.135-1.041.016-.143.034-.283.048-.427.048-.49.089-.985.115-1.492.066-.47.116-.957.155-1.475.002-.03.007-.059.009-.089.145-.181.287-.369.424-.568 1.648-2.393 2.279-6.621 1.647-11.034-.178-1.242-.443-2.455-.742-3.817-.541-2.458-1.126-5.123-.97-7.926-.673.446-1.35.89-2.028 1.331.054 2.5.57 4.867 1.062 7.102.273 1.247.531 2.425.698 3.594.334 2.33.263 4.672-.143 6.588-.231-2.594-.78-5.306-1.667-8.119-.405-1.447-.854-2.693-1.334-3.703-.002-.004-.004-.008-.006-.012-.481-1.184-1.028-2.359-1.603-3.525-.567.36-1.134.719-1.699 1.073.528 1.083 1.032 2.173 1.476 3.27.016.04.034.078.055.115.421.897.819 2.015 1.194 3.353 1.343 4.258 1.896 8.241 1.654 11.924-.009.133-.021.26-.031.389-.037.45-.079.898-.14 1.339-.116 2.159-.418 4.087-.896 5.73-.057.194-.127.382-.189.574l-.067.198c-.002.005-.001.009-.003.014-.521 1.577-1.199 3.074-2.028 4.469-.694-.106-2.775-.272-4.344 1.194-.403.377-.425 1.01-.048 1.413.196.211.463.317.73.317.245 0 .49-.089.683-.27 1.079-1.005 2.74-.668 2.776-.662.169.037.333.016.49-.03.023.007.039.025.062.031 3.007.665 4.628 2.484 4.831 5.416h-10.474c.326-1.388.196-3.528-.01-6.672-.375-5.742-.89-13.605 1.291-21.602.146-.533-.169-1.083-.702-1.228-.528-.143-1.082.168-1.228.702-2.269 8.319-1.72 16.708-1.357 22.258.178 2.711.378 5.773-.037 6.438-.03-.003-.062-.004-.093-.004h-5.267v-3.632c0-.552-.447-1-1-1s-1 .448-1 1v3.632h-2.088v-3.632c0-.552-.447-1-1-1s-1 .448-1 1v3.632h-1.335c-1.036 0-1.879-.843-1.879-1.879v-23.07c0-.552-.447-1-1-1s-1 .448-1 1v23.07c0 .729.214 1.403.565 1.986h-7.497c.351-.583.565-1.258.565-1.986v-23.07c0-.552-.447-1-1-1s-1 .448-1 1v23.07c0 1.036-.843 1.879-1.879 1.879h-1.335v-3.632c0-.552-.447-1-1-1s-1 .448-1 1v3.632h-2.088v-3.632c0-.552-.447-1-1-1s-1 .448-1 1v3.632h-5.267c-.024 0-.06.001-.094.004-.414-.666-.214-3.727-.036-6.438.362-5.551.911-13.939-1.358-22.259-.145-.534-.698-.843-1.228-.702-.533.146-.848.695-.702 1.228 2.182 7.997 1.667 15.86 1.292 21.602-.206 3.143-.336 5.283-.01 6.671h-10.472c.203-2.931 1.824-4.751 4.831-5.416.001 0 .002-.002.004-.002h.003c.017-.003 1.687-.35 2.771.663.192.18.438.27.683.27.268 0 .534-.106.73-.317.377-.403.355-1.036-.048-1.413-1.272-1.189-2.882-1.304-3.817-1.249-1.02-1.936-2.432-5.864-2.551-6.299-.011-.045-.025-.089-.042-.132-3.479-8.757-.161-19.73 4.942-28.462 7.765 4.947 15.833 9.622 22.386 13.283l2.548 1.412c.15.083.317.125.484.125s.334-.042.484-.125l2.551-1.414c5.801-3.24 14.54-8.274 23.229-13.854.465-.298.6-.917.302-1.382-.3-.464-.918-.601-1.382-.301-8.647 5.552-17.348 10.564-23.121 13.789l-2.062 1.144-2.061-1.142c-30.956-17.292-50.073-31.746-49.888-37.721.335-10.853 5.44-36.197 19.087-45.27 10.908-7.25 26.5-1.052 31.862 1.474v6.427c-16.686.422-28.714 11.338-28.839 26.311h-2.765c-.553 0-1 .448-1 1s.447 1 1 1h2.822c.077 1.211.231 2.428.46 3.644h-3.281c-.553 0-1 .448-1 1s.447 1 1 1h3.722c.312 1.226.7 2.443 1.155 3.644h-4.877c-.553 0-1 .448-1 1s.447 1 1 1h5.703c4.722 10.48 14.709 19.137 26.9 19.137s22.179-8.657 26.901-19.137h5.704c.553 0 1-.448 1-1s-.447-1-1-1h-4.877c.455-1.201.842-2.418 1.155-3.644h3.722c.553 0 1-.448 1-1s-.447-1-1-1h-3.281c.228-1.215.383-2.432.46-3.644h2.822c.553 0 1-.448 1-1s-.447-1-1-1h-2.766c-.126-14.973-12.154-25.889-28.84-26.311v-6.427c5.362-2.526 20.956-8.724 31.862-1.473 13.646 9.073 18.752 34.417 19.087 45.27.057 1.811-1.833 6.298-15.112 16.001-.446.326-.543.952-.218 1.397.326.445.95.544 1.397.218 10.843-7.923 16.055-13.706 15.933-17.678-.287-9.274-3.208-24.016-9.651-35.18 2.248-5.646.663-11.341-.217-12.687-1.569-2.403-8.519-.369-8.814-.281-.626.186-1.372.444-2.119.765-11.8-7.069-27.782-.638-33.148 1.909-5.339-2.535-21.195-8.92-32.978-2.013-1.359-.679-2.744-1.139-3.451-1.349-1.893-.562-6.43-1.665-7.682.253-.775 1.185-2.508 7.424-.174 13.38-6.452 11.166-9.377 25.923-9.664 35.203-.185 6.005 12.604 15.965 26.869 25.18-5.366 9.198-8.858 20.845-5.156 30.226.207.681 1.413 4.039 2.457 6.186-3.465 1.219-5.286 4.033-5.161 8.044.018.54.46.969 1 .969h66.754c.54 0 .982-.429 1-.969.124-3.993-1.68-6.799-5.112-8.027.674-1.216 1.246-2.499 1.712-3.835 2.912-1.155 5.422-3.161 7.273-5.849 3.806-5.524 3.043-13.341 2.719-15.604-.219-1.521-.542-2.991-.828-4.287-.77-3.501-1.378-6.267-.165-9.007.487-1.098 1.428-1.973 2.397-2.229.534-.141 1.488-.293 1.883.272.203.292.159.805.069 1.206-.945.334-2.742 1.219-3.51 3.293-1.063 2.868.305 6.775 4.064 11.612.193.249.487.386.789.386.123 0 .247-.022.365-.069.302-.118 7.388-2.956 8.435-7.957.398-1.906-.138-3.82-1.553-5.713zm-9.945-70.601c.325.499 1.732 4.729.515 9.341-2.21-3.388-4.784-6.347-7.752-8.587 3.333-1.138 6.724-1.238 7.237-.754zm-14.567 35.776h-3.207c-.553 0-1 .448-1 1s.447 1 1 1h3.146c-.081 1.211-.238 2.429-.48 3.644h-2.666c-.553 0-1 .448-1 1s.447 1 1 1h2.19c-.331 1.228-.738 2.446-1.22 3.644h-.969c-.553 0-1 .448-1 1s.447 1 1 1h.088c-4.547 9.46-13.662 17.137-24.722 17.137s-20.174-7.677-24.72-17.137h.088c.553 0 1-.448 1-1s-.447-1-1-1h-.969c-.482-1.198-.889-2.416-1.22-3.644h2.19c.553 0 1-.448 1-1s-.447-1-1-1h-2.666c-.242-1.215-.399-2.432-.48-3.644h3.146c.553 0 1-.448 1-1s-.447-1-1-1h-3.207c.128-14.112 11.793-24.331 27.838-24.331s27.71 10.219 27.84 24.331zm-70.303-36.46c.154-.13.556-.201 1.131-.201 1.425 0 3.92.441 6.394 1.474-3.054 2.25-5.699 5.255-7.96 8.714-1.227-4.679-.039-9.242.435-9.987zm94.411 76.584c-.66 3.163-4.854 5.422-6.525 6.206-3.649-4.891-3.825-7.615-3.302-9.052.26-.716.726-1.206 1.195-1.544.129 1.578 1.154 2.885 2.456 3.535 1.709.853 4.165.713 5.511-1.586l.07-.12c.059-.103.108-.213.163-.319.477.986.626 1.949.432 2.88z" fill="#3a2c60"/><path d="m94.147 70.686c-1.362.946-2.756 1.89-4.164 2.825-.461.306-.586.926-.28 1.386.192.29.51.447.834.447.189 0 .382-.054.552-.167 1.42-.943 2.825-1.895 4.199-2.848.453-.315.566-.938.251-1.392s-.938-.568-1.392-.251z" fill="#3a2c60"/><path d="m52.899 32.715c0-1.426-1.156-2.583-2.583-2.583-1.426 0-2.583 1.156-2.583 2.583 0 1.426 1.156 2.583 2.583 2.583 1.426 0 2.583-1.156 2.583-2.583z" fill="#3a2c60"/><path d="m71.685 35.298c1.426 0 2.583-1.156 2.583-2.583 0-1.426-1.156-2.583-2.583-2.583s-2.583 1.156-2.583 2.583 1.156 2.583 2.583 2.583z" fill="#3a2c60"/><path d="m55.793 41.029 4.207 4.208v13.791c0 2.079-1.691 3.77-3.77 3.77s-3.769-1.691-3.769-3.77c0-.552-.447-1-1-1s-1 .448-1 1c0 3.181 2.588 5.77 5.769 5.77 1.981 0 3.73-1.004 4.77-2.528 1.039 1.525 2.789 2.528 4.77 2.528 3.181 0 5.769-2.588 5.769-5.77 0-.552-.447-1-1-1s-1 .448-1 1c0 2.079-1.69 3.77-3.769 3.77s-3.77-1.691-3.77-3.77v-13.791l4.208-4.208c.272-.272.08-.738-.306-.738h-9.804c-.385 0-.578.466-.305.738z" fill="#3a2c60"/><g fill="#fa759e"><circle cx="56.716" cy="49.703" r=".704"/><circle cx="52.195" cy="51.771" r=".704"/><circle cx="52.562" cy="47.407" r=".704"/><circle cx="65.324" cy="49.589" r=".704"/><circle cx="69.846" cy="51.657" r=".704"/><circle cx="69.478" cy="47.294" r=".704"/></g></svg>