<svg id="Layer_1" enable-background="new 0 0 128 128" height="512" viewBox="0 0 128 128" width="512" xmlns="http://www.w3.org/2000/svg"><path d="m106.133 66.229c-2.782-2.058-6.08-2.721-9.286-1.877-3.454.914-6.43 3.521-7.959 6.973-2.336 5.273-1.287 10.038-.359 14.253.279 1.271.543 2.47.714 3.66.334 2.33.263 4.674-.144 6.59-.231-2.595-.78-5.308-1.667-8.12-.405-1.447-.854-2.692-1.334-3.703-.002-.004-.004-.008-.006-.013-2.631-6.472-6.767-12.836-11.369-17.505 4.015-3.363 7.236-7.73 9.375-12.477h5.705c.553 0 1-.447 1-1s-.447-1-1-1h-4.878c.455-1.2.842-2.417 1.155-3.644h3.724c.553 0 1-.447 1-1s-.447-1-1-1h-3.284c.229-1.216.383-2.433.46-3.645h2.823c.553 0 1-.447 1-1s-.447-1-1-1h-2.766c-.024-2.84-.474-5.534-1.304-8.038l.727.815c5.38-6.42 4.117-19.36 3.39-20.474-.217-.332-.744-.407-1.469-.293-.101-1.098-.307-2.659-.695-3.253-.841-1.288-2.875-.683-3.543-.485-3.35.996-10.799 5.26-12.13 8.573-4.291-2.039-9.312-3.175-14.815-3.175-5.437 0-10.403 1.105-14.66 3.098-1.415-3.302-8.775-7.508-12.099-8.496-.668-.197-2.702-.803-3.542.485-.266.408-.541 1.598-.707 3.251-.717-.111-1.24-.034-1.455.296-.727 1.114-1.99 14.053 3.39 20.474l.435-.488c-.763 2.412-1.178 4.995-1.201 7.711h-2.765c-.552 0-1 .447-1 1s.448 1 1 1h2.822c.077 1.211.231 2.429.46 3.645h-3.282c-.552 0-1 .447-1 1s.448 1 1 1h3.723c.312 1.226.7 2.443 1.155 3.644h-4.878c-.552 0-1 .447-1 1s.448 1 1 1h5.704c1.966 4.362 4.845 8.404 8.415 11.642-.22.244-.439.486-.657.705-8.68 8.731-18.469 27.142-13.095 40.767.204.679 1.401 4.027 2.456 6.188-3.463 1.219-5.284 4.032-5.158 8.044.017.54.459.969 1 .969h66.751c.54 0 .982-.429.999-.969.126-3.994-1.678-6.801-5.11-8.027.669-1.208 1.239-2.483 1.704-3.811 2.903-1.145 5.389-3.125 7.281-5.873 3.806-5.525 3.043-13.341 2.719-15.604-.215-1.497-.524-2.907-.828-4.287-.77-3.501-1.378-6.266-.165-9.007.486-1.098 1.427-1.972 2.397-2.229.534-.142 1.489-.294 1.882.272.287.412.088 1.277-.05 1.622-1.025 2.454.295 4.665 2.13 5.579 1.71.854 4.166.716 5.521-1.603.002-.004.057-.1.06-.104 2.017-3.555 1.664-9.037-2.417-12.056z" fill="#e6e7e8"/><path d="m48.45 90.267c-.552 0-1 .447-1 1v23.07c0 1.036-.843 1.879-1.878 1.879h-1.335v-3.632c0-.553-.448-1-1-1s-1 .447-1 1v3.632h-2.087v-3.632c0-.553-.448-1-1-1s-1 .447-1 1v3.632h-5.267c-.024 0-.06.002-.093.004-.414-.666-.214-3.727-.037-6.438.363-5.551.912-13.938-1.357-22.258-.146-.534-.695-.852-1.228-.702-.533.146-.847.695-.702 1.228 2.181 7.997 1.667 15.86 1.292 21.603-.294 4.506-.457 6.987.701 8.077.25.236.664.496 1.269.496.068 0 .138-.003.211-.01h12.636c2.139 0 3.878-1.74 3.878-3.879v-23.07c-.003-.553-.451-1-1.003-1z" fill="#e6e7e8"/><path d="m75.102 86.822c-.528-.147-1.082.168-1.228.702-2.27 8.318-1.721 16.707-1.357 22.258.177 2.711.377 5.772-.038 6.438-.03-.003-.062-.004-.093-.004h-5.267v-3.632c0-.553-.447-1-1-1s-1 .447-1 1v3.632h-2.087v-3.632c0-.553-.448-1-1-1s-1 .447-1 1v3.632h-1.335c-1.036 0-1.879-.843-1.879-1.879v-23.07c0-.553-.448-1-1-1s-1 .447-1 1v23.07c0 2.139 1.74 3.879 3.879 3.879h12.635c.073.007.144.01.211.01.605 0 1.019-.26 1.27-.496 1.157-1.09.995-3.571.7-8.077-.375-5.742-.89-13.605 1.292-21.603.144-.532-.17-1.082-.703-1.228z" fill="#e6e7e8"/><path d="m37.713 15.082c-1.042-3.346-12.717-9.991-13.98-8.057-.698 1.069-1.888 13.046 2.786 19.68 2.275-4.997 6.215-8.974 11.194-11.623z" fill="#fff"/><path d="m34.672 16.954c-1.292-3.385-12.691-9.838-13.938-7.929-.727 1.114-1.99 14.053 3.39 20.474l2.305-2.585c1.784-4.022 4.635-7.397 8.243-9.96z" fill="#ffd7e5"/><path d="m79.948 26.872c4.812-6.599 3.605-18.769 2.901-19.847-1.274-1.95-13.141 4.826-14.008 8.143 4.959 2.678 8.868 6.683 11.107 11.704z" fill="#fff"/><path d="m85.849 9.025c-1.261-1.93-12.899 4.689-13.975 8.041 3.414 2.462 6.146 5.652 7.913 9.438l2.671 2.996c5.381-6.422 4.118-19.362 3.391-20.475z" fill="#ffd7e5"/><path d="m54.639 36.014h-2.883c-5.488 0-9.937 4.449-9.937 9.937v15.13c0 3.343 2.71 6.053 6.053 6.053h10.65c3.343 0 6.053-2.71 6.053-6.053v-15.131c.001-5.487-4.448-9.936-9.936-9.936z" fill="#fff"/><circle cx="42.513" cy="28.438" fill="#6dc9f7" r="2.583"/><path d="m63.882 25.855c-1.426 0-2.583 1.156-2.583 2.583s1.156 2.583 2.583 2.583c1.426 0 2.583-1.156 2.583-2.583s-1.157-2.583-2.583-2.583z" fill="#6dc9f7"/><path d="m102.134 62.228c-2.783-2.057-6.08-2.72-9.287-1.876-3.454.915-6.429 3.521-7.958 6.973-2.336 5.271-1.287 10.037-.361 14.244.28 1.273.545 2.477.715 3.669.332 2.319.257 4.639-.146 6.544-.233-2.581-.781-5.278-1.664-8.074-.406-1.45-.854-2.696-1.333-3.703-.002-.004-.004-.009-.006-.013-2.634-6.476-6.772-12.841-11.375-17.51 4.014-3.364 7.241-7.725 9.38-12.472h5.705c.553 0 1-.447 1-1s-.447-1-1-1h-4.878c.455-1.2.842-2.417 1.155-3.644h3.724c.553 0 1-.447 1-1s-.447-1-1-1h-3.285c.228-1.215.383-2.432.46-3.644h2.823c.553 0 1-.447 1-1s-.447-1-1-1h-2.766c-.029-3.501-.716-6.776-1.954-9.752.503-.751.959-1.577 1.354-2.485.221-.506-.012-1.096-.519-1.315-.508-.223-1.096.012-1.315.519-.17.39-.351.762-.543 1.118-2.227-4.159-5.615-7.615-9.874-10.097.531-.731 1.632-1.823 3.551-3.163 3.613-2.526 7.304-3.999 8.303-3.873.111.375.3 1.347.405 2.935.037.552.527.965 1.064.932.552-.037.968-.514.932-1.064-.063-.952-.265-3.248-.755-3.997-.84-1.288-2.872-.684-3.539-.485-3.091.918-9.659 4.616-11.707 7.785-4.384-2.171-9.554-3.386-15.242-3.386-5.628 0-10.749 1.19-15.102 3.318-2.097-3.153-8.588-6.804-11.656-7.716-.668-.199-2.702-.805-3.542.484-.97 1.484-2.06 13.273 2.489 20.321-1.284 3.021-1.998 6.356-2.028 9.925h-2.765c-.552 0-1 .447-1 1s.448 1 1 1h2.822c.077 1.211.231 2.428.46 3.644h-3.282c-.552 0-1 .447-1 1s.448 1 1 1h3.723c.312 1.226.7 2.443 1.155 3.644h-4.878c-.552 0-1 .447-1 1s.448 1 1 1h5.704c1.966 4.363 4.854 8.397 8.424 11.635-.223.25-.445.49-.665.712-8.68 8.731-18.469 27.142-13.095 40.767.204.679 1.401 4.027 2.456 6.188-3.463 1.219-5.284 4.032-5.158 8.044.017.54.459.969 1 .969h66.753c.54 0 .982-.429 1-.969.124-3.993-1.68-6.8-5.112-8.027.669-1.207 1.238-2.48 1.703-3.805 2.905-1.145 5.39-3.13 7.283-5.879 3.806-5.524 3.043-13.341 2.719-15.604-.219-1.523-.542-2.992-.828-4.287-.77-3.501-1.378-6.266-.164-9.007.486-1.098 1.427-1.973 2.397-2.229.532-.143 1.486-.296 1.882.272.287.411.087 1.277-.051 1.622-1.025 2.454.295 4.664 2.129 5.579 1.71.854 4.167.714 5.525-1.605l.058-.101c2.013-3.559 1.661-9.041-2.42-12.061zm-53.715-25.628 3.778 3.778v14.373c0 2.078-1.691 3.77-3.769 3.77s-3.769-1.691-3.769-3.77c0-.553-.448-1-1-1s-1 .447-1 1c0 3.182 2.588 5.77 5.769 5.77 1.98 0 3.73-1.003 4.769-2.528 1.039 1.525 2.789 2.528 4.769 2.528 3.181 0 5.769-2.588 5.769-5.77 0-.553-.448-1-1-1s-1 .447-1 1c0 2.078-1.691 3.77-3.769 3.77-2.079 0-3.77-1.691-3.77-3.77v-14.372l3.778-3.778c3.844 1.372 6.6 5.035 6.6 9.35v15.13c0 1.479-.532 2.832-1.412 3.884-.133.158-.274.309-.422.453-.031.031-.065.058-.097.088-.118.111-.24.218-.367.318-.048.038-.098.073-.147.11-.116.087-.235.17-.357.249-.059.038-.12.074-.181.11-.117.07-.237.135-.36.197-.068.034-.137.068-.206.099-.121.055-.244.105-.369.152-.074.028-.148.057-.223.082-.128.042-.258.078-.389.112-.076.02-.15.042-.227.058-.143.031-.289.053-.435.074-.068.01-.135.024-.203.031-.216.023-.435.037-.657.037h-4.878-.894-4.878c-.222 0-.441-.014-.657-.037-.068-.007-.135-.021-.203-.031-.147-.021-.293-.043-.436-.074-.076-.017-.151-.039-.226-.058-.132-.034-.263-.07-.391-.113-.075-.025-.148-.053-.221-.081-.126-.048-.25-.098-.372-.153-.069-.031-.136-.064-.203-.098-.123-.062-.244-.128-.363-.198-.06-.035-.12-.071-.178-.108-.123-.079-.243-.163-.36-.25-.048-.036-.097-.071-.144-.108-.128-.102-.251-.21-.371-.321-.031-.029-.064-.056-.094-.085-.148-.144-.29-.295-.423-.453-.881-1.051-1.412-2.405-1.412-3.884v-15.133c.001-4.315 2.757-7.977 6.601-9.35zm15.463-10.745c1.426 0 2.583 1.156 2.583 2.583s-1.156 2.583-2.583 2.583c-1.426 0-2.583-1.156-2.583-2.583s1.156-2.583 2.583-2.583zm-21.369 0c1.426 0 2.583 1.156 2.583 2.583s-1.156 2.583-2.583 2.583-2.583-1.156-2.583-2.583 1.157-2.583 2.583-2.583zm-16.071-1.239c-3.17-6.122-2.446-15.42-1.912-16.941.957-.152 4.686 1.333 8.319 3.872 1.848 1.292 2.944 2.356 3.496 3.086-4.256 2.45-7.652 5.866-9.903 9.983zm23.008 89.721c0 1.208-.566 2.275-1.434 2.987h.002c-.004.004-.01.006-.014.01-.151.123-.308.234-.476.333-.045.027-.091.05-.137.074-.143.077-.287.15-.44.209-.101.04-.208.066-.314.098-.113.032-.223.072-.34.094-.235.046-.476.073-.724.073h-12.637c-.073.007-.143.01-.211.01-.604 0-1.018-.26-1.269-.496-.07-.066-.127-.147-.182-.231-.941-1.185-.795-3.614-.519-7.846.375-5.742.89-13.605-1.292-21.603-.145-.532.169-1.082.702-1.228.533-.149 1.082.168 1.228.702 2.269 8.319 1.721 16.707 1.357 22.258-.177 2.711-.377 5.771.037 6.438.033-.002.069-.004.093-.004h5.267v-3.632c0-.553.448-1 1-1s1 .447 1 1v3.632h2.087v-3.632c0-.553.448-1 1-1s1 .447 1 1v3.632h1.335c1.036 0 1.878-.843 1.878-1.879v-23.07c0-.553.448-1 1-1s1 .447 1 1v23.071zm26.354-26.287c-2.182 7.997-1.667 15.86-1.292 21.603.277 4.232.422 6.661-.518 7.846-.055.084-.112.165-.182.231-.251.236-.664.496-1.27.496-.067 0-.138-.003-.211-.01h-12.635c-.248 0-.49-.027-.724-.073-.117-.022-.227-.062-.34-.094-.106-.031-.212-.058-.314-.098-.153-.059-.297-.132-.441-.209-.046-.025-.092-.048-.137-.074-.168-.099-.325-.211-.476-.333-.005-.004-.01-.007-.014-.01h.002c-.868-.712-1.435-1.779-1.435-2.987v-23.07c0-.553.448-1 1-1s1 .447 1 1v23.07c0 1.036.843 1.879 1.879 1.879h1.335v-3.632c0-.553.448-1 1-1s1 .447 1 1v3.632h2.087v-3.632c0-.553.447-1 1-1s1 .447 1 1v3.632h5.267c.031 0 .063.001.093.004.415-.665.215-3.727.038-6.438-.363-5.551-.912-13.939 1.357-22.258.146-.534.699-.85 1.228-.702.534.145.848.695.703 1.227z" fill="#3a2c60"/><path d="m83.521 13.81c-.549-.03-1.021.396-1.05.948-.095 1.86-.327 3.625-.692 5.245-.121.539.217 1.074.756 1.195.074.017.147.024.221.024.457 0 .87-.315.975-.78.39-1.73.639-3.609.739-5.583.027-.551-.397-1.021-.949-1.049z" fill="#3a2c60"/><g fill="#fa759e"><circle cx="44.392" cy="43.834" r=".704"/><circle cx="39.871" cy="45.901" r=".704"/><circle cx="40.238" cy="41.538" r=".704"/><circle cx="62.003" cy="43.834" r=".704"/><circle cx="66.524" cy="45.901" r=".704"/><circle cx="66.157" cy="41.538" r=".704"/></g></svg>