<svg height="512pt" viewBox="0 -24 512 512" width="512pt" xmlns="http://www.w3.org/2000/svg"><path d="m399.878906 320h-288c-1.277344 0-2.480468-.617188-3.230468-1.648438l-32-44c-.496094-.6875-.769532-1.511718-.769532-2.351562v-156c0-1.695312 1.074219-3.207031 2.671875-3.777344 1.59375-.566406 3.378907-.054687 4.449219 1.273438l60.664062 75.832031 52.9375-75.625c1.503907-2.144531 5.054688-2.144531 6.550782 0l52.71875 75.320313 52.730468-75.320313c1.488282-2.144531 5.0625-2.144531 6.542969 0l52.933594 75.625 60.664063-75.832031c1.066406-1.328125 2.867187-1.824219 4.449218-1.273438 1.609375.5625 2.679688 2.074219 2.679688 3.777344v156c0 .839844-.261719 1.664062-.765625 2.351562l-32 44c-.738281 1.03125-1.9375 1.648438-3.226563 1.648438zm-285.96875-8h283.929688l30.039062-41.304688v-143.296874l-56.871094 71.097656c-.792968.984375-2.007812 1.625-3.246093 1.496094-1.265625-.039063-2.433594-.671876-3.152344-1.703126l-52.730469-75.320312-52.726562 75.320312c-1.503906 2.144532-5.054688 2.144532-6.550782 0l-52.722656-75.320312-52.71875 75.320312c-.71875 1.03125-1.886718 1.664063-3.152344 1.703126-1.175781.121093-2.464843-.511719-3.253906-1.496094l-56.875-71.097656v143.296874zm0 0" fill="#263238"/><path d="m379.878906 424h-248c-13.230468 0-24-10.769531-24-24v-68c0-2.207031 1.792969-4 4-4 2.210938 0 4 1.792969 4 4v68c0 8.824219 7.175782 16 16 16h248c8.824219 0 16-7.175781 16-16v-68c0-2.207031 1.792969-4 4-4 2.210938 0 4 1.792969 4 4v68c0 13.230469-10.757812 24-24 24zm0 0" fill="#263238"/><path d="m255.878906 276-32-40 32-40 32 40zm0 0" fill="#ff5252"/><path d="m255.878906 280c-1.214844 0-2.359375-.550781-3.125-1.503906l-32-40c-1.167968-1.464844-1.167968-3.535156 0-5l32-40c1.519532-1.894532 4.726563-1.894532 6.246094 0l32 40c1.167969 1.464844 1.167969 3.535156 0 5l-32 40c-.761719.953125-1.902344 1.503906-3.121094 1.503906zm-26.878906-44 26.878906 33.601562 26.875-33.601562-26.875-33.601562zm0 0" fill="#263238"/><path d="m143.878906 276-32-40 32-40 32 40zm0 0" fill="#40c4ff"/><path d="m143.878906 280c-1.214844 0-2.359375-.550781-3.125-1.503906l-32-40c-1.167968-1.464844-1.167968-3.535156 0-5l32-40c1.519532-1.894532 4.726563-1.894532 6.246094 0l32 40c1.167969 1.464844 1.167969 3.535156 0 5l-32 40c-.753906.953125-1.902344 1.503906-3.121094 1.503906zm-26.878906-44 26.878906 33.601562 26.882813-33.601562-26.882813-33.601562zm0 0" fill="#263238"/><path d="m367.878906 276-32-40 32-40 32 40zm0 0" fill="#ffd740"/><g fill="#263238"><path d="m367.878906 280c-1.214844 0-2.367187-.550781-3.125-1.503906l-32-40c-1.167968-1.464844-1.167968-3.535156 0-5l32-40c1.511719-1.894532 4.734375-1.894532 6.246094 0l32 40c1.167969 1.464844 1.167969 3.535156 0 5l-32 40c-.753906.953125-1.894531 1.503906-3.121094 1.503906zm-26.871094-44 26.871094 33.601562 26.875-33.601562-26.875-33.601562zm0 0"/><path d="m399.878906 376h-288c-2.207031 0-4-1.792969-4-4s1.792969-4 4-4h288c2.210938 0 4 1.792969 4 4s-1.78125 4-4 4zm0 0"/><path d="m200 120c-11.023438 0-20-8.976562-20-20s8.976562-20 20-20 20 8.976562 20 20-8.976562 20-20 20zm0-32c-6.617188 0-12 5.382812-12 12s5.382812 12 12 12 12-5.382812 12-12-5.382812-12-12-12zm0 0"/><path d="m312 120c-11.03125 0-20-8.976562-20-20s8.96875-20 20-20 20 8.976562 20 20-8.96875 20-20 20zm0-32c-6.617188 0-12 5.382812-12 12s5.382812 12 12 12 12-5.382812 12-12-5.382812-12-12-12zm0 0"/><path d="m432 120c-11.03125 0-20-8.976562-20-20s8.96875-20 20-20 20 8.976562 20 20-8.96875 20-20 20zm0-32c-6.617188 0-12 5.382812-12 12s5.382812 12 12 12 12-5.382812 12-12-5.382812-12-12-12zm0 0"/><path d="m80 120c-11.023438 0-20-8.976562-20-20s8.976562-20 20-20 20 8.976562 20 20-8.976562 20-20 20zm0-32c-6.617188 0-12 5.382812-12 12s5.382812 12 12 12 12-5.382812 12-12-5.382812-12-12-12zm0 0"/><path d="m431.878906 24h-32c-2.207031 0-4-1.792969-4-4s1.792969-4 4-4h32c2.210938 0 4 1.792969 4 4s-1.78125 4-4 4zm0 0"/><path d="m415.878906 40c-2.207031 0-4-1.792969-4-4v-32c0-2.207031 1.792969-4 4-4 2.210938 0 4 1.792969 4 4v32c0 2.207031-1.78125 4-4 4zm0 0"/><path d="m391.878906 72h-32c-2.207031 0-4-1.792969-4-4s1.792969-4 4-4h32c2.210938 0 4 1.792969 4 4s-1.78125 4-4 4zm0 0"/><path d="m375.878906 88c-2.207031 0-4-1.792969-4-4v-32c0-2.207031 1.792969-4 4-4 2.210938 0 4 1.792969 4 4v32c0 2.207031-1.78125 4-4 4zm0 0"/><path d="m20 464h-16c-2.207031 0-4-1.792969-4-4s1.792969-4 4-4h16c2.207031 0 4 1.792969 4 4s-1.792969 4-4 4zm0 0"/><path d="m124 464h-88c-2.207031 0-4-1.792969-4-4s1.792969-4 4-4h88c2.207031 0 4 1.792969 4 4s-1.792969 4-4 4zm0 0"/><path d="m508 464h-16c-2.207031 0-4-1.792969-4-4s1.792969-4 4-4h16c2.207031 0 4 1.792969 4 4s-1.792969 4-4 4zm0 0"/><path d="m476 464h-88c-2.207031 0-4-1.792969-4-4s1.792969-4 4-4h88c2.207031 0 4 1.792969 4 4s-1.792969 4-4 4zm0 0"/></g></svg>