<?xml version="1.0" encoding="iso-8859-1"?>
<!-- Generator: Adobe Illustrator 19.0.0, SVG Export Plug-In . SVG Version: 6.00 Build 0)  -->
<svg version="1.1" id="Capa_1" xmlns="http://www.w3.org/2000/svg" xmlns:xlink="http://www.w3.org/1999/xlink" x="0px" y="0px"
	 viewBox="0 0 512 512" style="enable-background:new 0 0 512 512;" xml:space="preserve">
<g>
	<path style="fill:#8CB4EB;" d="M374.801,219.334H342.21V113.412c0-18,14.592-32.591,32.591-32.591l0,0V219.334z"/>
	<path style="fill:#8CB4EB;" d="M285.175,121.56h-24.444c-13.5,0-24.443-10.944-24.443-24.443V48.23l0,0
		c-18,0-32.591,14.592-32.591,32.591v8.148c0,31.499,25.535,57.035,57.035,57.035h24.443c22.5,0,40.739,18.24,40.739,40.739v65.183
		h32.591v-57.035C358.505,154.391,325.674,121.56,285.175,121.56z"/>
</g>
<path style="fill:#EBC9A0;" d="M277.027,284.516c-35.999,0-65.183-29.183-65.183-65.183V194.89
	C138.514,105.264,8.149,88.969,8.149,88.969c86.231,80.799,99.132,166.351,99.132,166.351s69.256,27.16,104.564,78.084
	c0-13.5,10.944-24.443,24.443-24.443h73.33v-24.443h-32.591V284.516z"/>
<path style="fill:#8CB4EB;" d="M374.801,203.038c-44.894-0.001-81.326,36.346-81.477,81.239c-0.005,1.593-0.01,3.179-0.015,4.758
	c-0.216,69.584-56.7,125.846-126.283,125.846l0,0c-69.745,0-126.285-56.54-126.285-126.285V268.22H24.444v20.27
	c0,92.287,74.843,167.085,167.13,167.03h0.001c92.209-0.055,166.93-74.821,166.93-167.03v-20.27c0-18,14.591-32.591,32.591-32.591
	h48.887v-32.591H374.801z"/>
<path style="fill:#FF8087;" d="M374.801,203.038c-44.891,0-81.324,36.338-81.477,81.229c-0.002,0.491-0.003,0.982-0.005,1.471
	c-0.212,65.041-48.228,121.811-112.929,128.455c-75.741,7.779-139.65-51.446-139.65-125.597V268.22H24.444v16.41v3.86
	c0,4.96,0.318,9.842,0.742,14.692c8.664,84.872,92.079,147.956,183.156,122.152c60.329-17.093,101.061-73.544,101.262-136.247
	l0.003-0.93l0.012-3.825c0.116-35.749,29.461-64.999,65.21-64.999h-0.028c4.5,0,8.148-3.648,8.148-8.148l0,0
	C382.948,206.686,379.301,203.038,374.801,203.038L374.801,203.038z"/>
<path style="fill:#A5CDFF;" d="M325.914,346.485v63.044c0,8.644,3.434,16.934,9.546,23.046l0,0c4.322,4.322,6.75,10.184,6.75,16.296
	v47.489h16.296V346.485c0-16.123-20.911-22.454-29.854-9.039l0,0C326.866,340.123,325.914,343.268,325.914,346.485z"/>
<path style="fill:#AFB2BC;" d="M403.318,504.508c-1.965,0-3.939-0.708-5.506-2.14c-2.992-2.741-7.997-6.007-14.863-6.007
	c-4.392,0-8.689,1.4-12.437,4.05c-3.803,2.681-8.474,4.098-13.503,4.098h-18.874c-4.504,0-8.148-3.648-8.148-8.148
	s3.644-8.148,8.148-8.148h18.874c1.623,0,3.087-0.398,4.106-1.114c14.41-10.197,34.501-8.844,47.709,3.254
	c3.318,3.04,3.541,8.196,0.501,11.514C407.718,503.616,405.522,504.508,403.318,504.508z"/>
<path style="fill:#A5CDFF;" d="M229.069,404.16l-4.444,4.868c-8.222,9.007-12.781,20.763-12.781,32.959v54.373h16.296v-19.302
	c0-9.995,6.085-18.983,15.366-22.695l0.012-0.005c10.81-4.324,18.886-13.576,21.71-24.871l1.303-5.212
	c1.496-5.984,0.403-12.321-3.011-17.458l-0.009-0.013C255.621,394.934,238.679,393.633,229.069,404.16z"/>
<path style="fill:#AFB2BC;" d="M260.731,504.508c-1.965,0-3.939-0.708-5.506-2.14c-2.992-2.741-7.997-6.007-14.863-6.007
	c-4.392,0-8.689,1.4-12.437,4.05c-3.803,2.681-8.474,4.098-13.503,4.098h-18.874c-4.504,0-8.148-3.648-8.148-8.148
	s3.644-8.148,8.148-8.148h18.874c1.623,0,3.087-0.398,4.106-1.114c14.41-10.197,34.501-8.844,47.709,3.254
	c3.318,3.04,3.541,8.196,0.501,11.514C265.131,503.616,262.935,504.508,260.731,504.508z"/>
<path style="fill:#FF8087;" d="M211.844,349.699c-4.504,0-8.148-3.648-8.148-8.148V208.93l-101.88,58.216
	c-3.915,2.228-8.888,0.871-11.116-3.032c-2.236-3.907-0.875-8.884,3.032-11.116l114.069-65.183c2.522-1.444,5.626-1.432,8.132,0.028
	c2.514,1.456,4.058,4.142,4.058,7.046V341.55C219.992,346.051,216.348,349.699,211.844,349.699z"/>
<g>
	<path style="fill:#E6646E;" d="M43.126,265.834l1.962-1.962c2.305-2.305,3.014-5.761,1.804-8.787l-10.518-26.294
		c-1.366-3.415-6.199-3.415-7.565,0l-10.518,26.294c-1.21,3.026-0.501,6.483,1.804,8.787l1.962,1.962
		c1.528,1.528,2.386,3.6,2.386,5.761v13.035v3.86c0,4.96,0.318,9.842,0.742,14.692c0.246,2.413,0.561,4.806,0.934,7.18
		c0.616,3.92,4.107,6.745,8.075,6.745l0,0c5.011,0,8.849-4.446,8.069-9.396c-0.983-6.231-1.524-12.606-1.524-19.115v-17.001
		C40.74,269.435,41.598,267.362,43.126,265.834z"/>
	<path style="fill:#E6646E;" d="M309.618,292.664h-32.591c-40.437,0-73.33-32.898-73.33-73.33v-21.503
		C132.904,113.655,8.395,97.212,7.138,97.053c-4.464-0.557-7.631-4.631-7.074-9.095c0.557-4.464,4.599-7.658,9.095-7.074
		c5.458,0.68,134.455,17.748,208.995,108.846c1.186,1.456,1.838,3.278,1.838,5.16v24.443c0,31.449,25.589,57.035,57.035,57.035
		h32.591c4.504,0,8.148,3.648,8.148,8.148S314.122,292.664,309.618,292.664z"/>
</g>
<path style="fill:#8CB4EB;" d="M423.688,64.525h-57.035v32.591c0,13.5,10.944,24.443,24.443,24.443h16.296l0,0v-8.148
	c0-9,7.296-16.296,16.296-16.296h23.035c5.443,0,9.585-5.31,7.838-10.465C450.203,73.785,438.027,64.525,423.688,64.525z"/>
<path style="fill:#A5CDFF;" d="M439.983,129.708h-40.739c-17.975,0-32.591-14.621-32.591-32.591c0-4.5,3.644-8.148,8.148-8.148
	s8.148,3.648,8.148,8.148c0,8.987,7.312,16.296,16.296,16.296h40.739c4.504,0,8.148,3.648,8.148,8.148
	S444.487,129.708,439.983,129.708z"/>
<g>
	<circle style="fill:#6F6571;" cx="407.391" cy="80.819" r="8.148"/>
	<path style="fill:#6F6571;" d="M374.801,80.821h-8.148c-13.479,0-24.443-10.965-24.443-24.443s10.965-24.443,24.443-24.443h16.296
		c4.504,0,8.148,3.648,8.148,8.148s-3.644,8.148-8.148,8.148h-16.296c-4.496,0-8.148,3.656-8.148,8.148s3.652,8.148,8.148,8.148
		h8.148c4.504,0,8.148,3.648,8.148,8.148S379.304,80.821,374.801,80.821z"/>
</g>
<path style="fill:#8CB4EB;" d="M480.722,186.743h-57.035v32.591c0,13.5,10.944,24.443,24.443,24.443h16.296l0,0v-8.148
	c0-9,7.296-16.296,16.296-16.296h23.035c5.443,0,9.585-5.31,7.838-10.465C507.237,196.002,495.061,186.743,480.722,186.743z"/>
<path style="fill:#A5CDFF;" d="M497.018,251.925h-40.739c-17.975,0-32.591-14.621-32.591-32.591c0-4.5,3.644-8.148,8.148-8.148
	s8.148,3.648,8.148,8.148c0,8.987,7.312,16.296,16.296,16.296h40.739c4.504,0,8.148,3.648,8.148,8.148
	S501.522,251.925,497.018,251.925z"/>
<g>
	<circle style="fill:#6F6571;" cx="464.431" cy="203.039" r="8.148"/>
	<path style="fill:#6F6571;" d="M431.835,203.038h-8.148c-13.479,0-24.443-10.965-24.443-24.443s10.965-24.443,24.443-24.443h16.296
		c4.504,0,8.148,3.648,8.148,8.148s-3.644,8.148-8.148,8.148h-16.296c-4.496,0-8.148,3.656-8.148,8.148s3.652,8.148,8.148,8.148
		h8.148c4.504,0,8.148,3.648,8.148,8.148S436.339,203.038,431.835,203.038z"/>
</g>
<path style="fill:#8CB4EB;" d="M285.175,40.082H228.14v32.591c0,13.5,10.944,24.443,24.443,24.443h16.296l0,0v-8.147
	c0-9,7.296-16.296,16.296-16.296h23.035c5.443,0,9.585-5.31,7.838-10.465C311.69,49.341,299.514,40.082,285.175,40.082z"/>
<path style="fill:#A5CDFF;" d="M301.47,105.264h-40.739c-17.975,0-32.591-14.621-32.591-32.591c0-4.5,3.644-8.148,8.148-8.148
	s8.148,3.648,8.148,8.148c0,8.987,7.312,16.296,16.296,16.296h40.739c4.504,0,8.148,3.648,8.148,8.148
	C309.618,101.616,305.974,105.264,301.47,105.264z"/>
<g>
	<circle style="fill:#6F6571;" cx="268.881" cy="56.379" r="8.148"/>
	<path style="fill:#6F6571;" d="M236.288,56.377h-8.148c-13.479,0-24.443-10.965-24.443-24.443S214.661,7.49,228.14,7.49h16.296
		c4.504,0,8.148,3.648,8.148,8.148s-3.644,8.148-8.148,8.148H228.14c-4.496,0-8.148,3.656-8.148,8.148s3.652,8.148,8.148,8.148
		h8.148c4.504,0,8.148,3.648,8.148,8.148S240.791,56.377,236.288,56.377z"/>
</g>
<g>
</g>
<g>
</g>
<g>
</g>
<g>
</g>
<g>
</g>
<g>
</g>
<g>
</g>
<g>
</g>
<g>
</g>
<g>
</g>
<g>
</g>
<g>
</g>
<g>
</g>
<g>
</g>
<g>
</g>
</svg>
