<svg id="Layer_1" enable-background="new 0 0 128 128" height="512" viewBox="0 0 128 128" width="512" xmlns="http://www.w3.org/2000/svg"><path d="m116.866 91.388c-.136-.234-.36-.404-.622-.47-.585-.147-14.002-3.42-25.784 2.098-.317-1.687-.74-3.411-1.296-5.174-.437-1.556-.918-2.893-1.431-3.973-.002-.004-.005-.009-.007-.014-2.854-7.021-7.353-13.927-12.353-18.957-.408-.411-.821-.877-1.235-1.365.956-.743 19.312-15.661 19.312-15.661.266-.225.396-.571.343-.915-.077-.508-1.028-6.586-3.105-13.443 6.497-9.857 2.33-22.364 2.138-22.925-.145-.419-.547-.675-.99-.674-3.319.147-11.819.72-16.769 2.813-10.365-2.932-29.439-2.741-38.668.572-4.984-2.252-13.206-3.261-16.456-3.584-.461-.045-.91.243-1.053.694-.197.627-4.65 15.17 3.074 25.212-1.653 5.953-2.422 10.88-2.491 11.335-.053.344.077.69.343.915.606.511 9.301 7.845 18.252 14.841-.644.81-1.284 1.551-1.915 2.185-9.328 9.384-19.851 29.165-14.074 43.795.217.718 1.548 4.421 2.679 6.728-3.747 1.285-5.719 4.299-5.583 8.611.017.54.459.969.999.969h71.84c.54 0 .982-.429.999-.969.066-2.092-.373-3.873-1.262-5.305 2.849-1.052 5.689-2.374 8.459-3.974 12.22-7.055 16.573-21.96 16.753-22.591.073-.261.038-.54-.097-.774z" fill="#e6e7e8"/><path d="m84.588 89.417c.462 3.049.553 6.065.153 8.944-.127 2.349-.455 4.608-1.039 6.609-.717 2.459-1.742 4.69-2.974 6.648 1.488.329 3.104.988 4.321 2.275 3.175-1.075 6.521-2.572 9.86-4.5 12.381-7.148 16.795-22.679 16.795-22.679s-14.894-3.745-27.116 2.703z" fill="#fa759e"/><path d="m111.705 86.714s-12.49-3.138-23.98 1.282c.449 1.901-.743 6.829-.743 6.829s9.542-1.607 10.296-.542c.802 1.133-5.235 8.605-5.235 8.605s6.078 2.039 8.72 2.039c7.951-7.707 10.942-18.213 10.942-18.213z" fill="#fff"/><path d="m26.967 8.1c.716-.476 1.609-.909 2.631-1.302-5.684-2.643-17.024-3.772-17.024-3.772s-4.859 15.417 3.33 25.471c2.18-7.699 5.764-16.874 11.063-20.397z" fill="#fff"/><path d="m74.036 8.1c4.817 3.202 8.217 11.077 10.433 18.267 6.888-9.939 2.37-23.133 2.37-23.133s-11.684.519-17.254 2.947c1.811.541 3.338 1.179 4.451 1.919z" fill="#fff"/><path d="m26.967 8.1c.029-.019.064-.037.093-.056-5.442-1.332-11.393-1.926-11.393-1.926s-3.601 11.436.629 21.033c2.207-7.393 5.678-15.731 10.671-19.051z" fill="#fa759e"/><path d="m85.432 29.698 1.056 1.185c8.421-10.049 3.444-24.555 3.444-24.555s-9.316.414-15.278 2.23c5.231 4.009 8.719 13.518 10.778 21.14z" fill="#fa759e"/><path d="m80.729 111.618c1.232-1.958 2.256-4.189 2.974-6.648.584-2.001.911-4.26 1.039-6.609.689-4.95-.042-10.301-1.695-15.54-.425-1.516-.903-2.857-1.414-3.932l-.002.002c-3.021-7.464-7.707-14.415-12.539-19.275-.671-.675-1.344-1.452-2.019-2.297-5.704 4.408-11.279 8.478-14.777 10.432-1.116.619-2.472.619-3.588 0-3.727-2.082-9.809-6.563-15.896-11.299-.901 1.187-1.799 2.264-2.694 3.164-10.247 10.308-19.854 30.015-14.265 44.087.105.426 2.076 5.957 3.307 7.915-2.954.653-6.422 2.604-6.247 8.202h74.063c.174-5.597-3.293-7.549-6.247-8.202z" fill="#fa759e"/><path d="m65.889 112.803c-.001-.017-.002-.034-.004-.051-.126-1.715-.318-3.383-.564-4.999h-1.56c-1.529 0-2.769-1.24-2.769-2.769v-11.453c-2.753-5.31-6.409-8.552-10.423-8.552-4.091 0-7.812 3.363-10.582 8.856v11.151c0 1.529-1.24 2.769-2.769 2.769h-1.401c-.24 1.576-.429 3.201-.555 4.872-.004.052-.008.108-.012.165-.218 3.244 2.359 6.002 5.61 6.002h19.418c3.248-.002 5.841-2.751 5.611-5.991z" fill="#fff"/><path d="m87.793 40.548s-3.943-25.923-13.757-32.448c-8.275-5.501-38.795-5.501-47.07 0-9.813 6.525-13.756 32.448-13.756 32.448s25.772 21.771 35.497 27.203c1.116.619 2.472.619 3.588 0 9.726-5.432 35.498-27.203 35.498-27.203z" fill="#fa759e"/><path d="m19.975 17.334c-3.855 8.077-5.909 18.34-6.545 21.911.18.652.375 1.312.581 1.977 3.889 3.261 21.225 17.698 31.209 24.358.731-6.33-1.222-15.789-5.709-25.503-5.61-12.144-13.486-21.016-19.536-22.743z" fill="#fff"/><path d="m80.613 17.334c3.855 8.077 5.909 18.34 6.545 21.911-.18.652-.487 1.754-.694 2.419-3.889 3.261-20.56 17.528-31.096 23.916-.731-6.33 1.222-15.789 5.709-25.503 5.61-12.144 13.486-21.016 19.536-22.743z" fill="#fff"/><g fill="#3a2c60"><path d="m112.571 86.214c-.136-.234-.36-.404-.622-.47-.604-.152-14.452-3.521-26.596 2.186-.327-1.753-.766-3.545-1.344-5.379-.448-1.6-.944-2.976-1.473-4.091-.004-.008-.008-.017-.012-.025-2.941-7.233-7.575-14.345-12.724-19.524-.429-.431-.862-.923-1.298-1.438.477-.371.938-.725 1.432-1.112.436-.341.512-.969.171-1.404-.341-.433-.97-.512-1.403-.171-5.484 4.294-9.885 7.548-13.199 9.774h-10.009c-10.274-6.91-28.192-21.881-31.205-24.412.636-3.749 4.665-25.52 13.232-31.215 7.946-5.284 38.016-5.283 45.962 0 8.563 5.693 12.595 27.467 13.231 31.216-1.051.883-3.921 3.286-7.614 6.304-.428.35-.491.979-.142 1.407.35.426.979.492 1.407.142 4.677-3.822 8.04-6.662 8.073-6.69.266-.224.396-.57.343-.914-.079-.524-1.061-6.8-3.205-13.875 6.697-10.151 2.408-23.036 2.21-23.613-.145-.419-.537-.687-.99-.675-3.422.151-12.182.749-17.273 2.905-10.681-3.031-30.383-2.835-39.891.59-5.128-2.321-13.607-3.366-16.96-3.699-.481-.055-.911.243-1.053.694-.203.645-4.793 15.635 3.174 25.976-1.706 6.142-2.5 11.228-2.572 11.697-.052.344.078.69.343.915.625.527 9.603 8.1 18.839 15.317-.671.847-1.338 1.621-1.995 2.282-9.609 9.668-20.451 30.045-14.502 45.116.219.735 1.591 4.573 2.774 6.966-3.869 1.314-5.905 4.416-5.767 8.858.017.54.459.969 1 .969h74.063c.54 0 .982-.429 1-.969.068-2.168-.39-4.012-1.319-5.489 2.947-1.085 5.886-2.446 8.754-4.102 12.587-7.267 17.072-22.622 17.257-23.272.073-.261.038-.541-.097-.775zm-26.465-81.943c.725 2.608 2.788 11.86-1.358 19.666-2.27-6.724-5.581-13.627-10.159-16.67-.563-.375-1.23-.723-1.975-1.048 3.552-.968 8.565-1.682 13.492-1.948zm-72.794-.163c5.04.552 10.181 1.564 13.756 2.769-.227.128-.453.256-.655.391-5.1 3.391-8.63 11.571-10.896 18.96-5.225-8.163-2.971-19.124-2.205-22.12zm.611 114.712c.191-3.375 2.021-5.467 5.453-6.225.001 0 .002-.001.004-.002h.004c.018-.003 1.93-.4 3.174.762.193.18.438.27.683.27.267 0 .534-.106.73-.317.377-.403.356-1.036-.048-1.413-1.417-1.325-3.221-1.423-4.225-1.352-1.146-2.146-2.741-6.589-2.874-7.078-.011-.044-.024-.087-.042-.13-5.653-14.235 4.81-33.722 14.044-43.013.724-.728 1.442-1.559 2.158-2.462 5.844 4.524 11.607 8.738 15.238 10.766.713.396 1.496.594 2.278.594.783 0 1.567-.199 2.283-.595 2.994-1.672 7.745-5.009 14.138-9.925.485.576.972 1.129 1.461 1.622 4.986 5.017 9.477 11.922 12.32 18.945.018.044.038.086.062.126.467 1 .911 2.245 1.327 3.729 1.731 5.489 2.289 10.569 1.649 15.185-.13 2.409-.466 4.557-.999 6.384-.608 2.084-1.473 4.05-2.554 5.867-1.13-.085-3.352-.047-4.833 1.336-.403.377-.425 1.01-.048 1.414.196.211.463.317.73.317.245 0 .49-.089.683-.269 1.056-.985 3.111-.874 3.816-.748.007.001.013-.001.02 0 3.4.767 5.218 2.853 5.407 6.212zm80.487-10.293c-2.984 1.723-6.045 3.142-9.106 4.221-.133-.118-.277-.224-.419-.334-.052-.04-.1-.083-.153-.122-.321-.236-.665-.45-1.029-.645-.078-.042-.158-.081-.238-.121-.384-.192-.783-.37-1.211-.517 1.01-1.8 1.817-3.731 2.408-5.758.144-.494.275-1.007.392-1.539.351-1.596.579-3.354.677-5.212 0-.004.001-.008.001-.011.09-.644.153-1.3.198-1.963.005-.082.005-.166.01-.248.036-.615.054-1.238.053-1.869 0-.026-.001-.052-.002-.077-.007-1.413-.113-2.865-.31-4.349 9.768-4.832 21.247-3.185 24.729-2.52-1.224 3.521-5.931 15.251-16 21.064z"/><path d="m76.118 108.763c.593 0 .999-.255 1.245-.487 1.127-1.061.97-3.454.686-7.799-.36-5.521-.855-13.081 1.241-20.766.146-.533-.169-1.083-.702-1.228-.527-.145-1.082.168-1.228.702-2.185 8.008-1.656 16.081-1.307 21.422.168 2.57.357 5.47-.02 6.148-.022-.001-.045-.002-.067-.002h-3.996v-3.456c0-.552-.447-1-1-1s-1 .448-1 1v3.456h-2.964v-3.456c0-.552-.447-1-1-1s-1 .448-1 1v3.456h-1.246c-.976 0-1.769-.793-1.769-1.769v-22.189c0-.552-.448-1-1-1s-1 .448-1 1v22.189c0 2.078 1.691 3.769 3.769 3.769h12.152c.071.007.14.01.206.01z"/><path d="m39.987 81.795c-.552 0-1 .448-1 1v22.189c0 .976-.793 1.769-1.769 1.769h-1.246v-3.456c0-.552-.448-1-1-1s-1 .448-1 1v3.456h-2.964v-3.456c0-.552-.448-1-1-1s-1 .448-1 1v3.456h-3.996c-.019 0-.043.001-.067.002-.377-.679-.188-3.579-.02-6.149.349-5.342.877-13.414-1.307-21.422-.146-.533-.698-.848-1.228-.702-.533.146-.847.695-.702 1.228 2.096 7.685 1.602 15.245 1.241 20.765-.284 4.346-.441 6.739.686 7.799.246.232.652.488 1.246.488.066 0 .134-.003.205-.01h12.151c2.078 0 3.769-1.691 3.769-3.769v-22.188c.001-.552-.447-1-.999-1z"/><path d="m28.116 40.508c0 1.423 1.153 2.576 2.576 2.576s2.576-1.154 2.576-2.576-1.153-2.576-2.576-2.576-2.576 1.153-2.576 2.576z"/><path d="m70.314 37.932c-1.423 0-2.576 1.154-2.576 2.576s1.153 2.576 2.576 2.576 2.576-1.154 2.576-2.576-1.153-2.576-2.576-2.576z"/><path d="m72.837 53.795c.218 0 .438-.071.622-.218 1.095-.871 2.168-1.733 3.208-2.571.43-.347.497-.976.15-1.406-.346-.43-.975-.499-1.406-.151-1.036.835-2.107 1.694-3.198 2.563-.432.344-.503.973-.159 1.405.197.249.488.378.783.378z"/></g></svg>