<svg id="Layer_1" enable-background="new 0 0 128 128" height="512" viewBox="0 0 128 128" width="512" xmlns="http://www.w3.org/2000/svg"><path d="m125.332 29.701c-1.501-8.249-7.393-15.345-15.374-18.521-16.615-6.61-25.849 4.741-28.882 9.553-3.151-1.844-6.634-3.11-10.361-3.592v-3.191c0-.552-.447-1-1-1s-1 .448-1 1v3.014c-.452-.023-.905-.042-1.363-.042-.454 0-.903.019-1.352.042v-3.014c0-.552-.447-1-1-1s-1 .448-1 1v3.19c-4.523.582-8.686 2.324-12.332 4.849-1.937-3.52-11.282-18.104-29.626-10.809-7.981 3.176-13.873 10.273-15.374 18.521-1.183 6.498.655 12.515 5.04 16.509 7.773 7.08 7.816 9.858 7.875 13.705.02 1.275.042 2.721.322 4.44.889 5.451 5.07 11.273 10.529 11.581.133.008.271.012.412.012 2.791 0 7.27-1.586 10.916-10.249.935 1.253 1.99 2.418 3.148 3.495-4.999 3.38-5.989 10.848-5.872 16.869-.654 1.228-1.232 2.487-1.733 3.766-.515-.069-1.029-.25-1.481-.55-.222-.147-.433-.323-.628-.52.778-.268 1.441-.647 1.877-1.119.974-1.052 1.323-2.316.958-3.468-.307-.964-1.092-1.69-2.05-1.894-1.057-.225-2.134.191-2.974 1.136-.816.918-1.162 2.062-1 3.308.021.159.051.32.089.48-.433-.019-.865-.082-1.275-.2-1.044-.303-1.653-.885-1.81-1.731-.101-.543-.623-.902-1.165-.801-.544.101-.902.623-.802 1.166.297 1.605 1.44 2.772 3.221 3.288.843.245 1.793.325 2.718.265.465.695 1.063 1.311 1.735 1.756.589.39 1.239.644 1.903.786-.283.862-.53 1.729-.742 2.599-4.533 1.378-7.843 5.594-7.843 10.571 0 6.093 4.956 11.049 11.049 11.049 1.188 0 2.331-.194 3.404-.542l.121.978c.178 1.453.947 2.78 2.108 3.643 1.682 1.249 4.378 2.748 7.679 2.804.074.001.147.002.221.002 3.023 0 5.366-1.058 6.811-1.957 1.324-.825 2.128-2.376 2.098-4.048-.001-.037-.004-.073-.008-.109l-.612-4.754c1.656.179 3.357.277 5.094.277 1.744 0 3.446-.082 5.102-.23l-.619 4.704c-.005.037-.008.075-.009.112-.03 1.672.773 3.224 2.098 4.048 1.445.899 3.787 1.957 6.811 1.957.073 0 .147-.001.221-.002 3.301-.056 5.997-1.555 7.679-2.804 1.161-.863 1.931-2.19 2.108-3.643l.121-.978c1.073.349 2.216.542 3.404.542 6.093 0 11.049-4.957 11.049-11.049 0-4.782-3.059-8.853-7.319-10.388-.465-3.002-1.731-6.192-3.678-9.296.008-5.247-.896-11.338-4.489-14.875.972-.794 1.881-1.646 2.72-2.553 3.442 6.826 7.404 8.155 9.956 8.155.142 0 .279-.004.412-.012 5.459-.307 9.641-6.129 10.529-11.58.28-1.72.303-3.166.322-4.441.059-3.846.102-6.625 7.875-13.705 4.383-3.99 6.221-10.007 5.038-16.505zm-91.222 57.295c-.056-.178-.097-.355-.119-.53-.086-.664.086-1.243.511-1.721.305-.342.626-.524.92-.524.048 0 .096.005.143.015.257.055.471.263.56.542.143.447-.047.996-.518 1.505-.253.273-.805.537-1.497.713z" fill="#e6e7e8"/><path d="m33.672 46.013c0-9.997 5.308-20.168 13.349-26.305l.127-.555s-8.713-19.011-28.736-11.044c-14.609 5.813-19.944 24.332-10.03 33.361 10.622 9.674 7.382 11.802 8.511 18.723 1.566 9.608 13.571 18.672 20.637-.642-2.452-3.834-3.858-8.403-3.858-13.538z" fill="#fff"/><path d="m33.672 46.013c0-9.64 4.937-19.438 12.499-25.629-2.773-4.521-11.566-15.718-27.758-9.275-14.61 5.813-19.945 24.332-10.031 33.361 10.622 9.674 7.382 11.802 8.511 18.723 1.618 9.923 14.37 19.267 21.316-2.635-2.871-4.031-4.537-8.952-4.537-14.545z" fill="#ffd7e5"/><path d="m105.588 8.109c-17.167-6.83-26.014 6.161-28.19 10.008 9.307 5.852 15.634 16.979 15.634 27.896 0 6.251-2.08 11.664-5.6 15.931 7.142 16.124 18.18 7.434 19.677-1.751 1.128-6.922-2.111-9.05 8.511-18.723 9.912-9.029 4.577-27.548-10.032-33.361z" fill="#fff"/><path d="m105.588 11.109c-14.725-5.859-23.326 2.867-26.851 7.898 8.57 6.043 14.295 16.621 14.295 27.007 0 6.731-2.411 12.491-6.437 16.894 7.082 18.865 18.956 9.838 20.513.287 1.128-6.922-2.111-9.05 8.511-18.723 9.913-9.031 4.578-27.55-10.031-33.363z" fill="#ffd7e5"/><path d="m91.735 91.262c-.376-3.148-1.71-6.538-3.787-9.782.037-5.531-.924-12.065-5.095-15.207 6.234-4.619 10.179-11.646 10.179-20.26 0-15.823-13.288-32.092-29.68-32.092s-29.68 16.269-29.68 32.092c0 8.063 3.455 14.734 9.008 19.344-5.699 2.691-6.762 10.598-6.618 16.886-1.532 2.811-2.665 5.824-3.35 8.905-4.402 1.068-7.676 5.025-7.676 9.756 0 5.55 4.499 10.049 10.049 10.049 1.516 0 2.948-.346 4.237-.947l.279 2.26c.146 1.183.785 2.273 1.713 2.962 1.507 1.119 4.021 2.555 7.099 2.607 2.872.049 5.089-.935 6.486-1.804 1.025-.638 1.65-1.845 1.626-3.181l-.107-5.95c1.815.22 3.68.345 5.582.345 1.915 0 3.778-.101 5.581-.282l-.106 5.887c-.024 1.336.601 2.543 1.626 3.181 1.397.869 3.614 1.852 6.486 1.804 3.078-.052 5.592-1.487 7.099-2.607.928-.689 1.567-1.779 1.713-2.962l.279-2.26c1.289.601 2.721.947 4.237.947 5.55 0 10.049-4.499 10.049-10.049 0-4.571-3.053-8.422-7.229-9.642z" fill="#6dc9f7"/><g fill="#ffd7e5"><path d="m37.702 96.867c-.754-.49-1.65-.781-2.617-.781-2.661 0-4.817 2.157-4.817 4.817s2.157 4.817 4.817 4.817c1.393 0 2.639-.601 3.518-1.547z"/><path d="m88.915 96.086c-.967 0-1.863.291-2.617.781l-.901 7.307c.88.946 2.125 1.547 3.518 1.547 2.661 0 4.817-2.157 4.817-4.817 0-2.662-2.156-4.818-4.817-4.818z"/><path d="m44.644 112.713c-1.309 0-2.369 1.458-2.445 3.293 1.202.701 2.796 1.399 4.666 1.687.149-.451.239-.95.239-1.481 0-1.933-1.101-3.499-2.46-3.499z"/><path d="m50.398 112.713c-1.358 0-2.46 1.566-2.46 3.498 0 .585.11 1.127.289 1.612.063.002.123.011.186.012 1.688.026 3.142-.277 4.344-.689.059-.299.1-.609.1-.935.001-1.932-1.101-3.498-2.459-3.498z"/><path d="m79.303 112.713c1.309 0 2.369 1.458 2.445 3.293-1.202.701-2.796 1.399-4.666 1.687-.149-.451-.239-.95-.239-1.481.001-1.933 1.102-3.499 2.46-3.499z"/><path d="m73.55 112.713c1.358 0 2.46 1.566 2.46 3.498 0 .585-.11 1.127-.289 1.612-.063.002-.123.011-.186.012-1.688.026-3.142-.277-4.344-.689-.059-.299-.1-.609-.1-.935-.001-1.932 1.1-3.498 2.459-3.498z"/><path d="m74.277 53.362c-.776 0-1.404.429-1.404.957 0 .529.629.957 1.404.957.776 0 1.404-.429 1.404-.957s-.628-.957-1.404-.957z"/><ellipse cx="52.548" cy="54.32" rx="1.404" ry=".957"/></g><path d="m121.332 25.701c-1.501-8.249-7.393-15.345-15.374-18.521-16.619-6.611-25.853 4.743-28.882 9.553-3.15-1.844-6.634-3.11-10.361-3.591v-3.193c0-.552-.447-1-1-1s-1 .448-1 1v3.014c-.452-.023-.905-.042-1.363-.042-.454 0-.903.019-1.352.042v-3.014c0-.552-.447-1-1-1s-1 .448-1 1v3.19c-4.523.582-8.686 2.324-12.332 4.849-1.937-3.52-11.282-18.104-29.626-10.809-7.981 3.177-13.873 10.273-15.374 18.522-1.183 6.498.655 12.515 5.04 16.509 7.773 7.08 7.816 9.858 7.875 13.705.02 1.275.042 2.721.322 4.44.889 5.451 5.07 11.273 10.529 11.581.133.008.271.012.412.012 2.79 0 7.264-1.605 10.91-10.259.937 1.257 2.003 2.419 3.164 3.499-5.012 3.38-6 10.867-5.88 16.895-.649 1.223-1.23 2.475-1.728 3.748-.517-.068-1.033-.249-1.488-.551-.222-.147-.433-.323-.628-.52.778-.268 1.441-.647 1.877-1.119.974-1.052 1.323-2.316.958-3.468-.307-.964-1.092-1.69-2.05-1.894-1.057-.225-2.134.191-2.974 1.136-.816.918-1.162 2.062-1 3.308.021.159.051.32.089.48-.433-.019-.865-.082-1.275-.2-1.044-.303-1.653-.885-1.81-1.731-.101-.543-.623-.902-1.165-.801-.544.101-.902.623-.802 1.166.297 1.605 1.44 2.772 3.221 3.288.843.245 1.793.325 2.718.265.465.695 1.063 1.311 1.735 1.756.593.393 1.248.648 1.916.789-.281.86-.53 1.725-.742 2.592-4.54 1.373-7.857 5.592-7.857 10.575 0 6.093 4.956 11.049 11.049 11.049 1.188 0 2.331-.193 3.404-.543l.121.978c.178 1.453.947 2.78 2.108 3.643 1.682 1.249 4.378 2.748 7.679 2.804.074.001.147.002.221.002 3.023 0 5.366-1.058 6.811-1.957 1.324-.825 2.128-2.376 2.098-4.048-.001-.037-.004-.073-.008-.109l-.614-4.774c1.659.181 3.355.297 5.097.297 1.746 0 3.445-.091 5.104-.24l-.62 4.714c-.005.037-.008.075-.009.112-.03 1.672.773 3.224 2.098 4.048 1.445.899 3.787 1.957 6.811 1.957.073 0 .147-.001.221-.002 3.301-.056 5.997-1.555 7.679-2.804 1.161-.863 1.931-2.19 2.108-3.643l.121-.979c1.073.35 2.216.543 3.404.543 6.093 0 11.049-4.957 11.049-11.049 0-4.792-3.072-8.87-7.346-10.397-.464-3.001-1.71-6.187-3.654-9.29.004-5.244-.899-11.337-4.493-14.87.977-.797 1.881-1.661 2.724-2.573 3.443 6.833 7.405 8.175 9.958 8.175.142 0 .279-.004.412-.012 5.459-.307 9.641-6.129 10.529-11.58.28-1.72.303-3.166.322-4.441.059-3.846.102-6.625 7.875-13.705 4.383-3.993 6.221-10.01 5.038-16.507zm-91.222 57.294c-.056-.178-.097-.355-.119-.53-.086-.664.086-1.243.511-1.721.305-.342.626-.524.92-.524.048 0 .096.005.143.015.257.055.471.263.56.542.143.447-.047.996-.518 1.505-.253.273-.805.537-1.497.713zm-3.563-13.056c-3.925-.221-7.813-4.665-8.667-9.906-.257-1.575-.277-2.884-.297-4.149-.064-4.185-.115-7.49-8.527-15.152-3.865-3.52-5.476-8.868-4.42-14.672 1.379-7.576 6.799-14.098 14.146-17.021 3.355-1.335 6.373-1.886 9.072-1.886 11.426 0 17.098 9.884 18.194 12.03-8.199 6.484-13.376 17.021-13.376 26.832 0 5.085 1.342 9.715 3.741 13.666-2.602 6.852-6.051 10.455-9.866 10.258zm8.186 17.825c.24-.047.477-.108.705-.191.118.955.239 1.743.336 2.313-.228-.017-.457-.032-.689-.032-.339 0-.672.021-1.003.051.195-.717.407-1.431.651-2.141zm.352 22.188c-4.989 0-9.049-4.06-9.049-9.049s4.06-9.049 9.049-9.049c.338 0 .671.022.999.06l2.155 17.464c-.983.37-2.044.574-3.154.574zm62.879-9.049c0 4.99-4.06 9.049-9.049 9.049-1.11 0-2.171-.205-3.154-.574l2.152-17.464c.329-.038.662-.061 1.002-.061 4.989.001 9.049 4.06 9.049 9.05zm-9.049-11.049c-.232 0-.461.016-.688.032.173-1.031.421-2.725.581-4.772.784 1.65 1.334 3.284 1.665 4.862-.511-.072-1.028-.122-1.558-.122zm-1.979-8.445c-.716-1.056-1.926-1.752-3.295-1.752-1.699 0-3.157 1.072-3.72 2.592-1.837-.548-3.93-1.539-4.726-3.644-.706-1.869-.388-4.392.941-7.537 2.433-.914 4.683-2.079 6.696-3.488 3.326 3.055 4.132 8.823 4.104 13.829zm-9.478-13.061c.926-1.716 2.087-3.576 3.502-5.589.317-.452.208-1.076-.243-1.394-.452-.317-1.074-.209-1.394.243-5.551 7.899-7.513 13.69-5.997 17.704 1.278 3.385 4.674 4.558 7.118 5.146.288.069.594.007.832-.171s.385-.453.4-.75c.054-1.054.917-1.879 1.965-1.879 1.091 0 1.979.888 1.979 1.979v5.617c0 1.091-.888 1.979-1.979 1.979-.91 0-1.697-.621-1.914-1.511-.124-.505-.612-.832-1.129-.75-5.43.865-10.64-.274-15.479-3.379-.466-.298-1.084-.163-1.382.302s-.163 1.083.302 1.382c5.025 3.224 10.425 4.498 16.065 3.786.666 1.312 2.017 2.17 3.537 2.17.805 0 1.552-.244 2.179-.657l-2.414 19.568c-.11.898-.603 1.751-1.317 2.282-1.445 1.073-3.749 2.363-6.519 2.409-2.686.05-4.69-.874-5.941-1.653-.717-.446-1.156-1.309-1.155-2.261l2.611-19.852c.072-.547-.313-1.05-.86-1.122-.563-.068-1.05.314-1.122.861l-1.732 13.169c-1.725.169-3.513.268-5.37.268-1.837 0-3.622-.128-5.359-.333l-1.63-12.669c-.07-.547-.558-.939-1.12-.864-.548.07-.935.571-.864 1.119l2.499 19.42c.001.953-.438 1.816-1.155 2.263-1.251.779-3.284 1.679-5.941 1.653-2.77-.046-5.073-1.336-6.519-2.409-.715-.53-1.207-1.383-1.317-2.282l-2.668-21.602c-.041-.204-3.78-19.088 4.602-23.973 2.108 1.674 4.5 3.074 7.136 4.157.5.909 1.047 1.857 1.649 2.831.189.306.517.474.852.474.18 0 .361-.048.524-.149.47-.29.615-.906.325-1.376-3.483-5.638-5.244-10.603-5.262-10.652-.183-.52-.75-.796-1.274-.612-.521.183-.795.753-.612 1.274.047.135.799 2.254 2.285 5.296-8.273-4.287-13.479-12.172-13.479-21.798 0-13.659 10.624-28.815 25.328-30.853v3.409c0 .552.447 1 1 1s1-.448 1-1v-3.606c.448-.025.897-.042 1.352-.042.458 0 .912.017 1.363.042v3.605c0 .552.447 1 1 1s1-.448 1-1v-3.408c14.698 2.045 25.316 17.197 25.316 30.851-.001 10.046-5.667 18.194-14.574 22.337zm37.486-27.617c-8.412 7.662-8.463 10.968-8.527 15.152-.02 1.266-.04 2.574-.297 4.15-.854 5.241-4.742 9.684-8.667 9.905-3.339.179-6.396-2.563-8.847-7.822 3.452-4.426 5.425-9.931 5.425-16.103 0-10.555-5.995-21.946-15.296-28.23 2.681-4.407 10.979-14.914 26.483-8.746 7.348 2.923 12.768 9.445 14.146 17.021 1.056 5.805-.554 11.153-4.42 14.673z" fill="#3a2c60"/><circle cx="54.019" cy="46.013" fill="#3a2c60" r="2.375"/><path d="m72.684 43.638c-1.312 0-2.375 1.063-2.375 2.375s1.063 2.375 2.375 2.375 2.375-1.063 2.375-2.375-1.063-2.375-2.375-2.375z" fill="#3a2c60"/><path d="m55.831 76.644c-.331-.441-.957-.529-1.4-.198-.44.332-.529.959-.197 1.4 1.729 2.3 3.564 4.34 5.453 6.062.191.175.433.261.674.261.271 0 .542-.11.739-.326.372-.408.343-1.041-.065-1.413-1.798-1.638-3.548-3.585-5.204-5.786z" fill="#3a2c60"/></svg>