<svg id="Layer_1" enable-background="new 0 0 128 128" height="512" viewBox="0 0 128 128" width="512" xmlns="http://www.w3.org/2000/svg"><path d="m109.81 68.527c-2.536-1.874-5.532-2.482-8.436-1.714-3.163.837-5.892 3.233-7.3 6.411-2.203 4.972-1.191 9.568-.299 13.623.284 1.293.553 2.514.729 3.743.254 1.775.278 3.529.117 5.135-.249-1.086-.54-2.173-.881-3.254-.383-1.366-.814-2.575-1.274-3.544l-.002.002c-2.723-6.727-6.947-12.992-11.301-17.373-1.938-1.949-3.892-4.802-5.865-7.814 2.929-5.771 7.168-12.391 15.666-15.529 3.758-1.283 11.556.952 3.428-7.712.028-.094.086-.162.151-.223.027-.024.054-.048.086-.066.039-.024.088-.039.134-.056.109-.037.231-.062.375-.068 2.026-.081 7.382 2.897 7.382 1.501 0-2.268-6.824-10.978-7.99-12.572-2.57-3.512-4.888-6.415-7.162-8.806 1.478-6.053.006-12.81-.534-13.636-1.079-1.653-8.994 2.25-11.864 5.454-3.806-1.203-8.212-1.691-13.781-1.691-.148 0-.294.003-.441.005-.147-.002-.293-.005-.441-.005-5.569 0-9.975.488-13.781 1.691-2.87-3.204-10.785-7.106-11.864-5.454-.54.827-2.012 7.583-.534 13.636-2.274 2.391-4.592 5.294-7.162 8.806-1.167 1.594-7.99 10.304-7.99 12.572 0 1.396 5.356-1.582 7.382-1.501.144.006.266.031.375.068.047.017.096.032.134.056.032.019.059.043.086.066.065.061.123.129.151.223-8.128 8.664-.33 6.429 3.428 7.712 8.778 3.242 13.012 10.199 15.951 16.096-1.155 1.625-2.304 3.097-3.447 4.247-9.236 9.291-17.894 27.053-12.857 39.736.094.384 1.871 5.369 2.981 7.134-2.663.588-5.788 2.347-5.63 7.392h3.379c-.27.843-.416 1.83-.379 3h66.753c.119-3.814-1.638-5.748-3.654-6.72-.337-.741-.785-1.343-1.301-1.834.809-1.471 1.495-3.084 2.004-4.83.4-1.373.665-2.881.821-4.456 1.193-.94 2.263-2.075 3.18-3.408 3.599-5.226 2.863-12.722 2.552-14.896-.21-1.466-.517-2.863-.815-4.214-.777-3.535-1.448-6.587-.102-9.627.614-1.385 1.785-2.455 3.056-2.791 1.004-.265 2.277-.311 2.958.667.7 1.005.052 2.58.052 2.58-1.565 3.744 3.817 6.588 5.866 3.086.018-.03.035-.061.053-.091 1.802-3.178 1.49-8.069-2.143-10.757z" fill="#e6e7e8"/><path d="m105.81 64.527c-2.536-1.874-5.532-2.482-8.436-1.714-3.163.837-5.892 3.233-7.3 6.411-2.203 4.972-1.191 9.568-.299 13.623.284 1.293.553 2.514.729 3.743.254 1.775.278 3.529.117 5.135.837 3.658 1.125 7.312.646 10.752-.027.506-.067 1.007-.116 1.502 1.194-.939 2.263-2.076 3.18-3.409 3.599-5.226 2.863-12.722 2.552-14.896-.21-1.466-.517-2.863-.815-4.214-.777-3.535-1.448-6.587-.102-9.627.614-1.385 1.785-2.455 3.056-2.791 1.004-.265 2.277-.311 2.958.667.7 1.005.052 2.58.052 2.58-1.565 3.744 3.817 6.588 5.866 3.086.018-.03.035-.061.053-.091 1.804-3.178 1.492-8.069-2.141-10.757z" fill="#6dc9f7"/><path d="m84.651 111.426c1.11-1.765 2.034-3.776 2.68-5.992.526-1.804.821-3.84.936-5.957.621-4.461-.038-9.284-1.527-14.006-.383-1.366-.814-2.575-1.274-3.544l-.002.002c-2.723-6.727-6.947-12.992-11.301-17.373-1.086-1.092-2.177-2.472-3.273-4-1.862 3.763-3.212 7.065-4.9 8.639-1.271 1.186-2.884 1.926-4.61 2.138-1.397.171-3.049.338-4.191.338-.134 0-.293-.009-.441-.013-.148.005-.307.013-.441.013-1.142 0-2.795-.167-4.191-.338-1.726-.212-3.339-.952-4.61-2.138-1.725-1.609-3.096-5.021-5.023-8.887-1.155 1.625-2.304 3.097-3.447 4.247-9.236 9.291-17.894 27.053-12.857 39.736.094.384 1.871 5.369 2.981 7.134-2.663.588-5.788 2.347-5.63 7.392h66.753c.156-5.044-2.969-6.802-5.632-7.391z" fill="#fff"/><path d="m87.651 114.426c1.11-1.765 2.034-3.776 2.68-5.992.526-1.804.821-3.84.936-5.957.621-4.461-.038-9.284-1.527-14.006-.383-1.366-.814-2.575-1.274-3.544l-.002.002c-2.723-6.727-6.947-12.992-11.301-17.373-1.938-1.949-3.892-4.802-5.865-7.814-2.079 4.097-3.499 7.767-5.308 9.454-1.271 1.186-2.884 1.926-4.61 2.138-1.397.171-3.049.338-4.191.338-.134 0-.293-.009-.441-.013-.148.005-.307.013-.441.013-1.142 0-2.795-.167-4.191-.338-1.726-.212-3.339-.952-4.61-2.138-1.047-.976-1.963-2.619-2.951-4.621-.843 1.117-1.682 2.139-2.519 2.981-9.236 9.291-17.894 27.053-12.857 39.736.094.384 1.871 5.369 2.981 7.134-2.663.588-5.788 2.347-5.63 7.392h66.753c.156-5.045-2.969-6.803-5.632-7.392z" fill="#6dc9f7"/><path d="m90.287 117.915c0-3.236-3.184-5.859-7.111-5.859-1.922 0-3.664.631-4.944 1.653-.48.446-.88.992-1.159 1.654.005-.086.022-.17.022-.256 0-3.254-3.618-5.891-8.08-5.891-3.746 0-6.888 1.862-7.803 4.383-.131-2.103-.189-21.574-.012-29.622.038-1.729-1.096-3.332-2.786-3.701-.433-.094-.878-.144-1.332-.144-.009 0-.019 0-.028 0-1.975.019-3.537 1.708-3.568 3.683-.12 7.543-.161 25.819-.277 28.939-1.331-2.082-4.37-3.539-7.91-3.539-4.572 0-8.303 2.429-8.601 5.498-1.27-1.599-3.459-2.658-5.952-2.658-1.922 0-3.664.631-4.944 1.653-.993.924-1.655 2.261-1.581 4.207h13.489.146 15.014.016 8.843c.038-.035.028-.117-.009-.298.064.099.119.202.191.298h14.209c.234-.314.416-.651.57-.996-.033.315-.051.642-.038.996z" fill="#fff"/><path d="m42.525 8.028c-2.87-3.204-10.785-7.106-11.864-5.454-.54.827-2.012 7.583-.534 13.636 3.914-4.114 7.697-6.696 12.398-8.182z" fill="#6dc9f7"/><path d="m83.367 16.21c1.478-6.053.006-12.81-.534-13.636-1.079-1.653-8.994 2.25-11.864 5.454 4.701 1.486 8.484 4.068 12.398 8.182z" fill="#6dc9f7"/><path d="m90.529 25.016c-10.572-14.446-16.895-18.679-33.341-18.679-.148 0-.294.003-.441.005-.147-.002-.293-.005-.441-.005-16.446 0-22.769 4.233-33.341 18.68-1.167 1.594-7.99 10.304-7.99 12.572 0 1.66 7.596-2.884 8.128-1.087-8.128 8.664-.33 6.429 3.428 7.712 14.532 5.367 16.616 20.919 20.974 24.983 1.271 1.186 2.884 1.926 4.61 2.138 1.397.171 3.049.338 4.191.338.134 0 .293-.009.441-.013.148.005.307.013.441.013 1.142 0 2.795-.167 4.191-.338 1.726-.212 3.339-.952 4.61-2.138 4.357-4.064 6.442-19.617 20.974-24.983 3.758-1.283 11.556.952 3.428-7.712.532-1.797 8.128 2.747 8.128 1.087 0-2.269-6.824-10.979-7.99-12.573z" fill="#6dc9f7"/><path d="m90.391 36.501c.085-.286.362-.399.746-.414-9.193-10.914-21.496-15.642-29.322-10.59-2.18 1.407-3.808 11.814-4.893 15.174-.055.17-.295.17-.35 0-1.086-3.36-2.713-13.766-4.893-15.174-7.826-5.052-20.129-.324-29.322 10.59.384.015.661.128.746.414-8.128 8.664-.33 6.429 3.428 7.712 14.532 5.367 16.616 20.919 20.974 24.983 1.271 1.186 2.884 1.926 4.61 2.138 1.397.171 3.049.338 4.191.338.134 0 .293-.009.441-.013.148.005.307.013.441.013 1.142 0 2.795-.167 4.191-.338 1.726-.212 3.339-.952 4.61-2.138 4.357-4.064 6.442-19.617 20.974-24.983 3.758-1.284 11.556.952 3.428-7.712z" fill="#fff"/><g fill="#6dc9f7"><circle cx="60.589" cy="60.006" r=".582"/><circle cx="64.327" cy="61.715" r=".582"/><circle cx="64.023" cy="58.108" r=".582"/><circle cx="52.849" cy="60.088" r=".582"/><circle cx="49.111" cy="61.797" r=".582"/><circle cx="49.414" cy="58.19" r=".582"/></g><path d="m106.404 63.723c-2.786-2.058-6.084-2.725-9.287-1.877-3.453.914-6.428 3.521-7.958 6.972-2.336 5.272-1.287 10.039-.361 14.245.28 1.273.544 2.476.715 3.668.072.505.123 1.01.159 1.512.022.077.046.149.068.227.632 2.005 1.103 4.026 1.402 6.032.623-2.285.772-5.123.351-8.055-.181-1.265-.454-2.503-.742-3.816-.859-3.905-1.833-8.33.236-13.003 1.287-2.902 3.77-5.089 6.642-5.849 2.606-.689 5.3-.138 7.586 1.551 3.188 2.36 3.453 6.664 1.82 9.541-.758 1.297-2.04 1.254-2.903.824-1.004-.501-1.757-1.628-1.174-3.024.087-.213.828-2.121-.157-3.533-.806-1.158-2.238-1.535-4.034-1.062-1.558.413-2.981 1.697-3.714 3.353-1.479 3.339-.741 6.694.04 10.246.293 1.333.597 2.711.802 4.141.298 2.083 1.006 9.261-2.386 14.187-.67.973-1.422 1.834-2.249 2.583-.054.936-.146 1.853-.275 2.743 1.603-1.108 3.017-2.516 4.172-4.192 3.803-5.523 3.042-13.34 2.718-15.604-.215-1.504-.527-2.919-.828-4.287-.77-3.501-1.378-6.266-.164-9.007.486-1.097 1.427-1.972 2.396-2.229.534-.14 1.49-.292 1.882.272.288.413.088 1.278-.05 1.624-1.025 2.455.295 4.665 2.129 5.58 1.71.851 4.167.713 5.524-1.607l.058-.1c2.016-3.555 1.663-9.037-2.418-12.056z" fill="#3a2c60"/><path d="m86.169 110.822c.886-1.598 1.598-3.311 2.122-5.108.521-1.786.849-3.866.966-6.1.608-4.368.082-9.228-1.555-14.414-.406-1.449-.855-2.695-1.333-3.703-.002-.004-.004-.008-.006-.012-2.655-6.532-6.84-12.956-11.492-17.635-.922-.928-1.865-2.099-2.814-3.392 2.854-5.667 6.973-12.25 15.229-15.299.787-.269 1.855-.369 2.887-.465 1.988-.186 4.043-.378 4.639-1.95.483-1.277-.202-2.904-2.344-5.425.721.21 1.547.507 2.112.71 2.314.831 3.56 1.236 4.382.657.354-.249.556-.649.556-1.099 0-1.643-2.171-5.19-7.495-12.244-.304-.402-.542-.717-.688-.918-2.448-3.346-4.674-6.164-6.868-8.528 1.339-6.141-.062-12.745-.798-13.87-.901-1.379-3.131-.716-3.864-.499-2.623.78-6.758 3.034-9.099 5.369-3.744-1.09-8.095-1.562-13.52-1.562l-.426.007-.454-.005c-5.425 0-9.777.472-13.52 1.562-2.34-2.335-6.475-4.589-9.097-5.369-.732-.218-2.963-.881-3.865.498-.735 1.126-2.135 7.729-.797 13.87-2.194 2.364-4.42 5.182-6.868 8.528-.146.2-.383.514-.685.914-5.326 7.056-7.499 10.605-7.499 12.249 0 .45.203.85.556 1.099.822.581 2.069.173 4.382-.657.565-.203 1.392-.5 2.112-.71-2.143 2.521-2.827 4.148-2.344 5.425.596 1.572 2.651 1.764 4.639 1.95 1.032.096 2.1.196 2.864.457 8.159 3.013 12.28 9.455 15.129 15.066-1.008 1.39-2.01 2.65-2.988 3.634-3.595 3.617-6.987 8.375-9.551 13.396-.251.492-.056 1.094.436 1.345s1.094.056 1.345-.436c2.473-4.842 5.736-9.421 9.188-12.895.863-.868 1.716-1.897 2.568-3.026.155.321.309.642.458.952 1.376 2.872 2.565 5.352 4.053 6.74 1.426 1.33 3.214 2.159 5.17 2.399 1.87.229 3.321.346 4.313.346.105 0 .224-.004.342-.009l.065-.005.131.005c.119.005.238.009.343.009.992 0 2.443-.116 4.313-.346 1.957-.24 3.744-1.069 5.17-2.399 1.488-1.388 2.677-3.868 4.053-6.74.111-.233.228-.474.343-.713.792 1.035 1.585 1.98 2.386 2.786 4.486 4.513 8.526 10.726 11.084 17.043.016.04.035.078.055.115.419.895.818 2.013 1.194 3.353 1.556 4.932 2.057 9.496 1.482 13.651-.117 2.164-.419 4.092-.897 5.731-.545 1.868-1.32 3.628-2.285 5.254-.695-.106-2.776-.271-4.345 1.194-.404.377-.425 1.01-.048 1.414.197.211.464.317.731.317.245 0 .49-.089.683-.269 1.078-1.008 2.74-.67 2.777-.662.169.037.333.015.49-.03.023.007.039.025.062.031 3.007.664 4.628 2.484 4.83 5.416h-10.472c.326-1.388.196-3.528-.01-6.671-.375-5.742-.89-13.606 1.292-21.603.145-.533-.169-1.083-.702-1.228-.536-.144-1.082.169-1.228.702-2.269 8.319-1.72 16.708-1.357 22.259.177 2.71.377 5.771-.037 6.437-.031-.003-.062-.004-.093-.004h-5.267v-3.632c0-.552-.448-1-1-1s-1 .448-1 1v3.632h-2.087v-3.632c0-.552-.448-1-1-1s-1 .448-1 1v3.632h-1.335c-1.036 0-1.879-.843-1.879-1.879v-23.07c0-.552-.448-1-1-1s-1 .448-1 1v23.07c0 .729.214 1.404.565 1.987h-7.498c.351-.583.565-1.258.565-1.987v-23.07c0-.552-.448-1-1-1s-1 .448-1 1v23.07c0 1.036-.843 1.879-1.879 1.879h-1.335v-3.632c0-.552-.448-1-1-1s-1 .448-1 1v3.632h-2.087v-3.632c0-.552-.448-1-1-1s-1 .448-1 1v3.632h-5.267c-.024 0-.06.001-.093.004-.414-.666-.214-3.727-.037-6.437.363-5.551.912-13.939-1.357-22.259-.146-.533-.696-.849-1.228-.702-.533.146-.847.695-.702 1.228 2.181 7.996 1.667 15.86 1.292 21.602-.205 3.143-.335 5.284-.009 6.671h-10.475c.202-2.931 1.823-4.751 4.83-5.416.001 0 .002-.002.004-.002h.004c.016-.004 1.686-.35 2.771.663.193.18.438.27.683.27.267 0 .534-.106.73-.317.377-.403.356-1.036-.048-1.413-1.272-1.189-2.882-1.304-3.817-1.249-1.017-1.933-2.432-5.864-2.552-6.301-.011-.044-.024-.087-.042-.129-1.224-3.083-1.656-6.641-1.284-10.574.052-.55-.352-1.038-.901-1.09-.558-.047-1.038.352-1.09.901-.4 4.233.07 8.087 1.399 11.457.204.677 1.403 4.028 2.456 6.188-3.463 1.218-5.284 4.032-5.158 8.044.017.54.459.969 1 .969h66.753c.54 0 .982-.429 1-.969.124-3.995-1.68-6.802-5.113-8.029zm-11.214-104.743c3.523-2.271 6.387-3.058 7.075-2.885.434.982 1.467 5.98.732 10.955-3.089-3.003-6.213-5.127-9.906-6.532.558-.471 1.238-.983 2.099-1.538zm-43.494-2.884c.686-.179 3.55.61 7.076 2.883.861.555 1.542 1.068 2.1 1.538-3.693 1.405-6.817 3.529-9.906 6.532-.737-4.993.305-10.01.73-10.953zm33.846 65.27c-1.115 1.04-2.515 1.688-4.049 1.876-1.765.217-3.172.331-4.07.331-.081 0-.172-.004-.263-.008l-.211-.005-.146.005c-.091.004-.182.008-.262.008-.897 0-2.305-.114-4.07-.331-1.534-.188-2.935-.837-4.049-1.876-1.212-1.13-2.325-3.453-3.613-6.142-3.075-6.417-7.287-15.204-17.72-19.057-1.011-.345-2.199-.457-3.348-.563-.979-.092-2.801-.262-2.954-.667-.038-.099-.263-1.074 3.28-4.851.243-.259.33-.627.229-.968-.121-.408-.399-.74-.782-.934-1.021-.517-2.585-.018-5.043.865-.623.224-1.455.522-2.062.689.533-1.309 2.277-4.174 6.895-10.292.31-.41.552-.731.703-.937 10.195-13.932 16.013-18.27 32.534-18.27l.454.005.428-.005c16.521 0 22.338 4.338 32.534 18.27.151.207.395.53.706.942 4.615 6.114 6.359 8.979 6.892 10.287-.607-.167-1.439-.465-2.062-.689-2.459-.882-4.022-1.379-5.043-.865-.383.194-.661.526-.782.934-.101.341-.013.709.229.968 3.543 3.777 3.318 4.752 3.28 4.851-.153.406-1.975.576-2.954.667-1.148.107-2.336.218-3.371.572-10.41 3.844-14.621 12.632-17.696 19.048-1.289 2.689-2.402 5.011-3.614 6.142z" fill="#3a2c60"/><path d="m25.476 89.075c.08.02.161.029.24.029.449 0 .858-.305.97-.761.44-1.79 1.028-3.63 1.747-5.472.201-.515-.054-1.094-.568-1.295-.516-.199-1.095.054-1.295.568-.75 1.923-1.365 3.848-1.826 5.722-.133.535.195 1.077.732 1.209z" fill="#3a2c60"/><path d="m44.109 26.447c-1.683 0-3.047 1.364-3.047 3.047s1.364 3.047 3.047 3.047 3.047-1.364 3.047-3.047-1.364-3.047-3.047-3.047z" fill="#3a2c60"/><path d="m69.321 26.447c-1.683 0-3.047 1.364-3.047 3.047s1.364 3.047 3.047 3.047 3.047-1.364 3.047-3.047-1.365-3.047-3.047-3.047z" fill="#3a2c60"/><path d="m65.278 63.161c-.552 0-1 .448-1 1 0 1.546-1.465 2.803-3.266 2.803s-3.266-1.257-3.266-2.803v-5.643c.088-.061.174-.128.252-.206l4.983-4.983c1.116-1.116.326-3.024-1.253-3.024h-9.966c-1.578 0-2.368 1.908-1.253 3.024l4.983 4.983c.079.079.164.146.253.206v5.643c0 1.546-1.465 2.803-3.266 2.803s-3.266-1.257-3.266-2.803c0-.552-.448-1-1-1s-1 .448-1 1c0 2.648 2.362 4.803 5.266 4.803 1.758 0 3.309-.798 4.266-2.01.957 1.212 2.507 2.01 4.266 2.01 2.903 0 5.266-2.155 5.266-4.803.001-.552-.446-1-.999-1z" fill="#3a2c60"/></svg>